<svg width="390" height="136" viewBox="0 0 390 136" fill="none" xmlns="http://www.w3.org/2000/svg">
<g clip-path="url(#clip0_54_663)">
<rect width="390" height="136" fill="#E5DBFB"/>
<path d="M26.76 37H27.912L30.036 30.136L32.136 37H33.264L35.88 28.324H34.68L33.084 33.64C32.964 34.024 32.844 34.468 32.7 35.2C32.568 34.552 32.448 34.096 32.304 33.628L30.672 28.324H29.4L27.756 33.628C27.624 34.084 27.492 34.504 27.348 35.2C27.228 34.54 27.108 34.084 26.988 33.628L25.404 28.324H24.18L26.76 37ZM38.6449 37.144C40.0969 37.144 41.0809 36.436 41.3689 35.176H40.3129C40.1209 35.848 39.5449 36.208 38.6689 36.208C37.5529 36.208 36.9049 35.524 36.8209 34.288L41.3569 34.276V33.856C41.3569 32.116 40.2649 30.964 38.5969 30.964C36.8929 30.964 35.7289 32.236 35.7289 34.072C35.7289 35.896 36.9169 37.144 38.6449 37.144ZM38.5969 31.912C39.5929 31.912 40.2289 32.56 40.2289 33.532H36.8449C36.9889 32.5 37.6129 31.912 38.5969 31.912ZM43.5556 29.056C43.6276 28.516 43.2556 28.288 42.9556 28.288C42.6076 28.288 42.2356 28.516 42.3076 29.056L42.6196 31.54H43.2676L43.5556 29.056ZM48.3557 31.084C48.1277 31.036 47.9597 31.012 47.7557 31.012C46.9517 31.012 46.3637 31.42 46.1237 32.032L46.0517 31.144H44.9957V37H46.1237V33.892C46.1237 32.764 46.7837 32.116 47.8517 32.116H48.3557V31.084ZM51.7347 37.144C53.1867 37.144 54.1707 36.436 54.4587 35.176H53.4027C53.2107 35.848 52.6347 36.208 51.7587 36.208C50.6427 36.208 49.9947 35.524 49.9107 34.288L54.4467 34.276V33.856C54.4467 32.116 53.3547 30.964 51.6867 30.964C49.9827 30.964 48.8187 32.236 48.8187 34.072C48.8187 35.896 50.0067 37.144 51.7347 37.144ZM51.6867 31.912C52.6827 31.912 53.3187 32.56 53.3187 33.532H49.9347C50.0787 32.5 50.7027 31.912 51.6867 31.912ZM60.1159 36.988V33.796C60.1159 32.788 60.7039 31.996 61.7959 31.996C62.6359 31.996 63.1999 32.476 63.1999 33.664V37H64.3279V33.412C64.3279 31.912 63.6079 30.964 62.1079 30.964C61.1959 30.964 60.4879 31.396 60.1159 32.032V28.168H58.9879V36.988H60.1159ZM67.6062 37.144C68.5542 37.144 69.3582 36.724 69.6582 36.052L69.7782 37H70.7382V33.316C70.7382 31.732 69.7542 30.964 68.3022 30.964C66.7902 30.964 65.7822 31.768 65.7822 32.992H66.7662C66.7662 32.284 67.3062 31.864 68.2542 31.864C69.0462 31.864 69.6342 32.212 69.6342 33.196V33.364L67.7862 33.508C66.4062 33.616 65.6022 34.288 65.6022 35.368C65.6022 36.436 66.3462 37.144 67.6062 37.144ZM67.9302 36.268C67.1982 36.268 66.7422 35.956 66.7422 35.332C66.7422 34.756 67.1502 34.372 68.1462 34.276L69.6462 34.156V34.468C69.6462 35.572 68.9982 36.268 67.9302 36.268ZM73.71 37H74.826L77.274 31.132H76.098L74.79 34.408C74.586 34.924 74.394 35.428 74.298 35.812C74.202 35.452 74.034 34.96 73.83 34.408L72.546 31.132H71.346L73.71 37ZM80.4339 37.144C81.8859 37.144 82.8699 36.436 83.1579 35.176H82.1019C81.9099 35.848 81.3339 36.208 80.4579 36.208C79.3419 36.208 78.6939 35.524 78.6099 34.288L83.1459 34.276V33.856C83.1459 32.116 82.0539 30.964 80.3859 30.964C78.6819 30.964 77.5179 32.236 77.5179 34.072C77.5179 35.896 78.7059 37.144 80.4339 37.144ZM80.3859 31.912C81.3819 31.912 82.0179 32.56 82.0179 33.532H78.6339C78.7779 32.5 79.4019 31.912 80.3859 31.912ZM88.7071 37L88.7911 35.932C89.1751 36.736 89.9551 37.144 90.8791 37.144C92.5831 37.144 93.6391 35.872 93.6391 34.096C93.6391 32.284 92.6311 30.964 90.9511 30.964C89.9911 30.964 89.1991 31.372 88.8151 32.14V28.168H87.6871V37H88.7071ZM88.8271 34.048C88.8271 32.848 89.5231 31.984 90.6751 31.984C91.8271 31.984 92.5111 32.848 92.5111 34.048C92.5111 35.26 91.8271 36.124 90.6751 36.124C89.5231 36.124 88.8271 35.272 88.8271 34.048ZM97.4144 37.144C98.8664 37.144 99.8504 36.436 100.138 35.176H99.0824C98.8904 35.848 98.3144 36.208 97.4384 36.208C96.3224 36.208 95.6744 35.524 95.5904 34.288L100.126 34.276V33.856C100.126 32.116 99.0344 30.964 97.3664 30.964C95.6624 30.964 94.4984 32.236 94.4984 34.072C94.4984 35.896 95.6864 37.144 97.4144 37.144ZM97.3664 31.912C98.3624 31.912 98.9984 32.56 98.9984 33.532H95.6144C95.7584 32.5 96.3824 31.912 97.3664 31.912ZM103.918 37.144C105.37 37.144 106.354 36.436 106.642 35.176H105.586C105.394 35.848 104.818 36.208 103.942 36.208C102.826 36.208 102.178 35.524 102.094 34.288L106.63 34.276V33.856C106.63 32.116 105.538 30.964 103.87 30.964C102.166 30.964 101.002 32.236 101.002 34.072C101.002 35.896 102.19 37.144 103.918 37.144ZM103.87 31.912C104.866 31.912 105.502 32.56 105.502 33.532H102.118C102.262 32.5 102.886 31.912 103.87 31.912ZM109.018 37V33.892C109.018 32.752 109.63 31.996 110.686 31.996C111.55 31.996 112.102 32.476 112.102 33.664V37H113.23V33.412C113.23 31.912 112.522 30.964 110.974 30.964C110.146 30.964 109.402 31.36 109.03 32.032L108.91 31.132H107.89V37H109.018ZM121.434 31.084C121.206 31.036 121.038 31.012 120.834 31.012C120.03 31.012 119.442 31.42 119.202 32.032L119.13 31.144H118.074V37H119.202V33.892C119.202 32.764 119.862 32.116 120.93 32.116H121.434V31.084ZM124.813 37.144C126.265 37.144 127.249 36.436 127.537 35.176H126.481C126.289 35.848 125.713 36.208 124.837 36.208C123.721 36.208 123.073 35.524 122.989 34.288L127.525 34.276V33.856C127.525 32.116 126.433 30.964 124.765 30.964C123.061 30.964 121.897 32.236 121.897 34.072C121.897 35.896 123.085 37.144 124.813 37.144ZM124.765 31.912C125.761 31.912 126.397 32.56 126.397 33.532H123.013C123.157 32.5 123.781 31.912 124.765 31.912ZM128.401 34.072C128.401 35.92 129.541 37.144 131.269 37.144C132.685 37.144 133.777 36.292 134.005 35.02H132.877C132.673 35.716 132.073 36.136 131.269 36.136C130.201 36.136 129.517 35.32 129.517 34.06C129.517 32.788 130.249 31.972 131.317 31.972C132.073 31.972 132.673 32.368 132.865 33.112H133.993C133.789 31.804 132.757 30.964 131.281 30.964C129.565 30.964 128.401 32.236 128.401 34.072ZM134.811 34.06C134.811 35.872 136.107 37.144 137.871 37.144C139.623 37.144 140.919 35.872 140.919 34.06C140.919 32.248 139.623 30.976 137.871 30.976C136.107 30.976 134.811 32.248 134.811 34.06ZM135.951 34.06C135.951 32.836 136.731 31.984 137.871 31.984C138.999 31.984 139.791 32.836 139.791 34.06C139.791 35.284 138.999 36.136 137.871 36.136C136.731 36.136 135.951 35.284 135.951 34.06ZM141.796 33.916C141.796 35.56 142.852 36.844 144.52 36.844C145.444 36.844 146.212 36.436 146.596 35.752V36.928C146.596 38.044 145.876 38.764 144.772 38.764C143.788 38.764 143.14 38.26 142.996 37.396H141.868C142.084 38.884 143.176 39.784 144.772 39.784C146.572 39.784 147.712 38.608 147.712 36.76V31.132H146.704L146.62 32.128C146.248 31.396 145.516 30.964 144.568 30.964C142.864 30.964 141.796 32.26 141.796 33.916ZM142.924 33.892C142.924 32.812 143.596 31.948 144.724 31.948C145.876 31.948 146.548 32.764 146.548 33.892C146.548 35.044 145.852 35.86 144.712 35.86C143.608 35.86 142.924 34.996 142.924 33.892ZM150.467 37V33.892C150.467 32.752 151.079 31.996 152.135 31.996C152.999 31.996 153.551 32.476 153.551 33.664V37H154.679V33.412C154.679 31.912 153.971 30.964 152.423 30.964C151.595 30.964 150.851 31.36 150.479 32.032L150.359 31.132H149.339V37H150.467ZM156.794 29.74C157.202 29.74 157.538 29.404 157.538 28.996C157.538 28.576 157.202 28.252 156.794 28.252C156.386 28.252 156.05 28.576 156.05 28.996C156.05 29.404 156.386 29.74 156.794 29.74ZM156.242 37H157.37V31.132H156.242V37ZM163.219 37V36.052H160.027L163.219 32.056V31.132H158.647V32.08H161.815L158.647 36.088V37H163.219ZM166.895 37.144C168.347 37.144 169.331 36.436 169.619 35.176H168.563C168.371 35.848 167.795 36.208 166.919 36.208C165.803 36.208 165.155 35.524 165.071 34.288L169.607 34.276V33.856C169.607 32.116 168.515 30.964 166.847 30.964C165.143 30.964 163.979 32.236 163.979 34.072C163.979 35.896 165.167 37.144 166.895 37.144ZM166.847 31.912C167.843 31.912 168.479 32.56 168.479 33.532H165.095C165.239 32.5 165.863 31.912 166.847 31.912ZM173.219 37.144C174.155 37.144 174.947 36.736 175.331 35.932L175.427 37H176.435V28.168H175.319V32.08C174.923 31.36 174.167 30.964 173.267 30.964C171.527 30.964 170.483 32.284 170.483 34.084C170.483 35.872 171.515 37.144 173.219 37.144ZM173.447 36.124C172.295 36.124 171.623 35.26 171.623 34.048C171.623 32.848 172.295 31.984 173.447 31.984C174.599 31.984 175.307 32.848 175.307 34.048C175.307 35.272 174.599 36.124 173.447 36.124ZM182.363 37L182.447 35.932C182.831 36.736 183.611 37.144 184.535 37.144C186.239 37.144 187.295 35.872 187.295 34.096C187.295 32.284 186.287 30.964 184.607 30.964C183.647 30.964 182.855 31.372 182.471 32.14V28.168H181.343V37H182.363ZM182.483 34.048C182.483 32.848 183.179 31.984 184.331 31.984C185.483 31.984 186.167 32.848 186.167 34.048C186.167 35.26 185.483 36.124 184.331 36.124C183.179 36.124 182.483 35.272 182.483 34.048ZM187.775 39.628C188.075 39.7 188.387 39.748 188.759 39.748C189.659 39.748 190.247 39.328 190.643 38.32L193.415 31.132H192.251L190.511 35.86L188.807 31.132H187.619L189.983 37.312L189.779 37.876C189.503 38.62 189.071 38.704 188.531 38.704H187.775V39.628ZM198.965 28.324H197.789V37H202.781V35.908H198.965V28.324ZM206.282 37.144C207.734 37.144 208.718 36.436 209.006 35.176H207.95C207.758 35.848 207.182 36.208 206.306 36.208C205.19 36.208 204.542 35.524 204.458 34.288L208.994 34.276V33.856C208.994 32.116 207.902 30.964 206.234 30.964C204.53 30.964 203.366 32.236 203.366 34.072C203.366 35.896 204.554 37.144 206.282 37.144ZM206.234 31.912C207.23 31.912 207.866 32.56 207.866 33.532H204.482C204.626 32.5 205.25 31.912 206.234 31.912ZM211.911 37.144C212.859 37.144 213.663 36.724 213.963 36.052L214.083 37H215.043V33.316C215.043 31.732 214.059 30.964 212.607 30.964C211.095 30.964 210.087 31.768 210.087 32.992H211.071C211.071 32.284 211.611 31.864 212.559 31.864C213.351 31.864 213.939 32.212 213.939 33.196V33.364L212.091 33.508C210.711 33.616 209.907 34.288 209.907 35.368C209.907 36.436 210.651 37.144 211.911 37.144ZM212.235 36.268C211.503 36.268 211.047 35.956 211.047 35.332C211.047 34.756 211.455 34.372 212.451 34.276L213.951 34.156V34.468C213.951 35.572 213.303 36.268 212.235 36.268ZM218.957 37.144C219.893 37.144 220.685 36.736 221.069 35.932L221.165 37H222.173V28.168H221.057V32.08C220.661 31.36 219.905 30.964 219.005 30.964C217.265 30.964 216.221 32.284 216.221 34.084C216.221 35.872 217.253 37.144 218.957 37.144ZM219.185 36.124C218.033 36.124 217.361 35.26 217.361 34.048C217.361 32.848 218.033 31.984 219.185 31.984C220.337 31.984 221.045 32.848 221.045 34.048C221.045 35.272 220.337 36.124 219.185 36.124ZM224.352 29.74C224.76 29.74 225.096 29.404 225.096 28.996C225.096 28.576 224.76 28.252 224.352 28.252C223.944 28.252 223.608 28.576 223.608 28.996C223.608 29.404 223.944 29.74 224.352 29.74ZM223.8 37H224.928V31.132H223.8V37ZM227.694 37V33.892C227.694 32.752 228.306 31.996 229.362 31.996C230.226 31.996 230.778 32.476 230.778 33.664V37H231.906V33.412C231.906 31.912 231.198 30.964 229.65 30.964C228.822 30.964 228.078 31.36 227.706 32.032L227.586 31.132H226.566V37H227.694ZM233.096 33.916C233.096 35.56 234.152 36.844 235.82 36.844C236.744 36.844 237.512 36.436 237.896 35.752V36.928C237.896 38.044 237.176 38.764 236.072 38.764C235.088 38.764 234.44 38.26 234.296 37.396H233.168C233.384 38.884 234.476 39.784 236.072 39.784C237.872 39.784 239.012 38.608 239.012 36.76V31.132H238.004L237.92 32.128C237.548 31.396 236.816 30.964 235.868 30.964C234.164 30.964 233.096 32.26 233.096 33.916ZM234.224 33.892C234.224 32.812 234.896 31.948 236.024 31.948C237.176 31.948 237.848 32.764 237.848 33.892C237.848 35.044 237.152 35.86 236.012 35.86C234.908 35.86 234.224 34.996 234.224 33.892ZM29.592 49.316V48.248H26.184V45.404H30.24V44.324H25.008V53H26.184V49.316H29.592ZM32.0243 45.74C32.4323 45.74 32.7683 45.404 32.7683 44.996C32.7683 44.576 32.4323 44.252 32.0243 44.252C31.6163 44.252 31.2803 44.576 31.2803 44.996C31.2803 45.404 31.6163 45.74 32.0243 45.74ZM31.4723 53H32.6003V47.132H31.4723V53ZM35.3659 53V49.892C35.3659 48.752 35.9779 47.996 37.0339 47.996C37.8979 47.996 38.4499 48.476 38.4499 49.664V53H39.5779V49.412C39.5779 47.912 38.8699 46.964 37.3219 46.964C36.4939 46.964 35.7499 47.36 35.3779 48.032L35.2579 47.132H34.2379V53H35.3659ZM42.8562 53.144C43.8042 53.144 44.6082 52.724 44.9082 52.052L45.0282 53H45.9882V49.316C45.9882 47.732 45.0042 46.964 43.5522 46.964C42.0402 46.964 41.0322 47.768 41.0322 48.992H42.0162C42.0162 48.284 42.5562 47.864 43.5042 47.864C44.2962 47.864 44.8842 48.212 44.8842 49.196V49.364L43.0362 49.508C41.6562 49.616 40.8522 50.288 40.8522 51.368C40.8522 52.436 41.5962 53.144 42.8562 53.144ZM43.1802 52.268C42.4482 52.268 41.9922 51.956 41.9922 51.332C41.9922 50.756 42.4002 50.372 43.3962 50.276L44.8962 50.156V50.468C44.8962 51.572 44.2482 52.268 43.1802 52.268ZM48.6784 53V49.892C48.6784 48.752 49.2904 47.996 50.3464 47.996C51.2104 47.996 51.7624 48.476 51.7624 49.664V53H52.8904V49.412C52.8904 47.912 52.1824 46.964 50.6344 46.964C49.8064 46.964 49.0624 47.36 48.6904 48.032L48.5704 47.132H47.5504V53H48.6784ZM54.0687 50.072C54.0687 51.92 55.2087 53.144 56.9367 53.144C58.3527 53.144 59.4447 52.292 59.6727 51.02H58.5447C58.3407 51.716 57.7407 52.136 56.9367 52.136C55.8687 52.136 55.1847 51.32 55.1847 50.06C55.1847 48.788 55.9167 47.972 56.9847 47.972C57.7407 47.972 58.3407 48.368 58.5327 49.112H59.6607C59.4567 47.804 58.4247 46.964 56.9487 46.964C55.2327 46.964 54.0687 48.236 54.0687 50.072ZM63.3949 53.144C64.8469 53.144 65.8309 52.436 66.1189 51.176H65.0629C64.8709 51.848 64.2949 52.208 63.4189 52.208C62.3029 52.208 61.6549 51.524 61.5709 50.288L66.1069 50.276V49.856C66.1069 48.116 65.0149 46.964 63.3469 46.964C61.6429 46.964 60.4789 48.236 60.4789 50.072C60.4789 51.896 61.6669 53.144 63.3949 53.144ZM63.3469 47.912C64.3429 47.912 64.9789 48.56 64.9789 49.532H61.5949C61.7389 48.5 62.3629 47.912 63.3469 47.912ZM74.212 49.904C75.904 49.904 77.008 48.728 77.008 47.108C77.008 45.44 75.916 44.324 74.212 44.324H70.84V53H72.016V49.904H74.212ZM74.008 45.38C75.112 45.38 75.772 46.004 75.772 47.096C75.772 48.164 75.124 48.848 73.96 48.848H72.016V45.38H74.008ZM82.204 47.132V50.228C82.204 51.488 81.64 52.148 80.608 52.148C79.744 52.148 79.204 51.668 79.204 50.408V47.132H78.076V50.78C78.076 52.22 78.844 53.144 80.212 53.144C81.076 53.144 81.856 52.724 82.192 52.112L82.312 53H83.32V47.132H82.204ZM85.9766 53L86.0606 51.932C86.4446 52.736 87.2246 53.144 88.1486 53.144C89.8526 53.144 90.9086 51.872 90.9086 50.096C90.9086 48.284 89.9006 46.964 88.2206 46.964C87.2606 46.964 86.4686 47.372 86.0846 48.14V44.168H84.9566V53H85.9766ZM86.0966 50.048C86.0966 48.848 86.7926 47.984 87.9446 47.984C89.0966 47.984 89.7806 48.848 89.7806 50.048C89.7806 51.26 89.0966 52.124 87.9446 52.124C86.7926 52.124 86.0966 51.272 86.0966 50.048ZM93.3039 53V44.168H92.1759V53H93.3039ZM95.5164 45.74C95.9244 45.74 96.2604 45.404 96.2604 44.996C96.2604 44.576 95.9244 44.252 95.5164 44.252C95.1084 44.252 94.7724 44.576 94.7724 44.996C94.7724 45.404 95.1084 45.74 95.5164 45.74ZM94.9644 53H96.0924V47.132H94.9644V53ZM97.3461 50.072C97.3461 51.92 98.4861 53.144 100.214 53.144C101.63 53.144 102.722 52.292 102.95 51.02H101.822C101.618 51.716 101.018 52.136 100.214 52.136C99.1461 52.136 98.4621 51.32 98.4621 50.06C98.4621 48.788 99.1941 47.972 100.262 47.972C101.018 47.972 101.618 48.368 101.81 49.112H102.938C102.734 47.804 101.702 46.964 100.226 46.964C98.5101 46.964 97.3461 48.236 97.3461 50.072ZM105.856 53.144C106.804 53.144 107.608 52.724 107.908 52.052L108.028 53H108.988V49.316C108.988 47.732 108.004 46.964 106.552 46.964C105.04 46.964 104.032 47.768 104.032 48.992H105.016C105.016 48.284 105.556 47.864 106.504 47.864C107.296 47.864 107.884 48.212 107.884 49.196V49.364L106.036 49.508C104.656 49.616 103.852 50.288 103.852 51.368C103.852 52.436 104.596 53.144 105.856 53.144ZM106.18 52.268C105.448 52.268 104.992 51.956 104.992 51.332C104.992 50.756 105.4 50.372 106.396 50.276L107.896 50.156V50.468C107.896 51.572 107.248 52.268 106.18 52.268ZM112.113 53V48.08H113.265V47.132H112.113V45.296H110.985V47.132H109.833V48.08H110.985V53H112.113ZM114.829 45.74C115.237 45.74 115.573 45.404 115.573 44.996C115.573 44.576 115.237 44.252 114.829 44.252C114.421 44.252 114.085 44.576 114.085 44.996C114.085 45.404 114.421 45.74 114.829 45.74ZM114.277 53H115.405V47.132H114.277V53ZM116.659 50.06C116.659 51.872 117.955 53.144 119.719 53.144C121.471 53.144 122.767 51.872 122.767 50.06C122.767 48.248 121.471 46.976 119.719 46.976C117.955 46.976 116.659 48.248 116.659 50.06ZM117.799 50.06C117.799 48.836 118.579 47.984 119.719 47.984C120.847 47.984 121.639 48.836 121.639 50.06C121.639 51.284 120.847 52.136 119.719 52.136C118.579 52.136 117.799 51.284 117.799 50.06ZM125.143 53V49.892C125.143 48.752 125.755 47.996 126.811 47.996C127.675 47.996 128.227 48.476 128.227 49.664V53H129.355V49.412C129.355 47.912 128.647 46.964 127.099 46.964C126.271 46.964 125.527 47.36 125.155 48.032L125.035 47.132H124.015V53H125.143ZM130.367 51.296C130.367 52.412 131.243 53.144 132.623 53.144C134.015 53.144 134.975 52.436 134.975 51.32C134.975 50.444 134.483 49.988 133.487 49.748L132.455 49.496C131.879 49.352 131.591 49.088 131.591 48.692C131.591 48.152 131.987 47.84 132.695 47.84C133.379 47.84 133.775 48.212 133.799 48.8H134.879C134.855 47.684 134.015 46.964 132.731 46.964C131.435 46.964 130.523 47.648 130.523 48.728C130.523 49.592 131.015 50.108 132.059 50.36L133.091 50.6C133.703 50.756 133.895 50.996 133.895 51.392C133.895 51.932 133.439 52.256 132.647 52.256C131.903 52.256 131.447 51.896 131.447 51.296H130.367ZM141.223 53.144C142.171 53.144 142.975 52.724 143.275 52.052L143.395 53H144.355V49.316C144.355 47.732 143.371 46.964 141.919 46.964C140.407 46.964 139.399 47.768 139.399 48.992H140.383C140.383 48.284 140.923 47.864 141.871 47.864C142.663 47.864 143.251 48.212 143.251 49.196V49.364L141.403 49.508C140.023 49.616 139.219 50.288 139.219 51.368C139.219 52.436 139.963 53.144 141.223 53.144ZM141.547 52.268C140.815 52.268 140.359 51.956 140.359 51.332C140.359 50.756 140.767 50.372 141.763 50.276L143.263 50.156V50.468C143.263 51.572 142.615 52.268 141.547 52.268ZM147.046 53V49.892C147.046 48.752 147.658 47.996 148.714 47.996C149.578 47.996 150.13 48.476 150.13 49.664V53H151.258V49.412C151.258 47.912 150.55 46.964 149.002 46.964C148.174 46.964 147.43 47.36 147.058 48.032L146.938 47.132H145.918V53H147.046ZM155.172 53.144C156.108 53.144 156.9 52.736 157.284 51.932L157.38 53H158.388V44.168H157.272V48.08C156.876 47.36 156.12 46.964 155.22 46.964C153.48 46.964 152.436 48.284 152.436 50.084C152.436 51.872 153.468 53.144 155.172 53.144ZM155.4 52.124C154.248 52.124 153.576 51.26 153.576 50.048C153.576 48.848 154.248 47.984 155.4 47.984C156.552 47.984 157.26 48.848 157.26 50.048C157.26 51.272 156.552 52.124 155.4 52.124ZM171.312 48.656C171.312 46.016 169.596 44.168 167.136 44.168C164.688 44.168 162.972 46.028 162.972 48.656C162.972 51.296 164.676 53.144 167.124 53.144C169.584 53.144 171.312 51.296 171.312 48.656ZM170.076 48.656C170.076 50.66 168.9 52.016 167.136 52.016C165.372 52.016 164.208 50.672 164.208 48.656C164.208 46.64 165.372 45.308 167.136 45.308C168.9 45.308 170.076 46.64 170.076 48.656ZM175.985 47.084C175.757 47.036 175.589 47.012 175.385 47.012C174.581 47.012 173.993 47.42 173.753 48.032L173.681 47.144H172.625V53H173.753V49.892C173.753 48.764 174.413 48.116 175.481 48.116H175.985V47.084ZM176.542 49.916C176.542 51.56 177.598 52.844 179.266 52.844C180.19 52.844 180.958 52.436 181.342 51.752V52.928C181.342 54.044 180.622 54.764 179.518 54.764C178.534 54.764 177.886 54.26 177.742 53.396H176.614C176.83 54.884 177.922 55.784 179.518 55.784C181.318 55.784 182.458 54.608 182.458 52.76V47.132H181.45L181.366 48.128C180.994 47.396 180.262 46.964 179.314 46.964C177.61 46.964 176.542 48.26 176.542 49.916ZM177.67 49.892C177.67 48.812 178.342 47.948 179.47 47.948C180.622 47.948 181.294 48.764 181.294 49.892C181.294 51.044 180.598 51.86 179.458 51.86C178.354 51.86 177.67 50.996 177.67 49.892ZM185.802 53.144C186.75 53.144 187.554 52.724 187.854 52.052L187.974 53H188.934V49.316C188.934 47.732 187.95 46.964 186.498 46.964C184.986 46.964 183.978 47.768 183.978 48.992H184.962C184.962 48.284 185.502 47.864 186.45 47.864C187.242 47.864 187.83 48.212 187.83 49.196V49.364L185.982 49.508C184.602 49.616 183.798 50.288 183.798 51.368C183.798 52.436 184.542 53.144 185.802 53.144ZM186.126 52.268C185.394 52.268 184.938 51.956 184.938 51.332C184.938 50.756 185.346 50.372 186.342 50.276L187.842 50.156V50.468C187.842 51.572 187.194 52.268 186.126 52.268ZM191.624 53V49.892C191.624 48.752 192.236 47.996 193.292 47.996C194.156 47.996 194.708 48.476 194.708 49.664V53H195.836V49.412C195.836 47.912 195.128 46.964 193.58 46.964C192.752 46.964 192.008 47.36 191.636 48.032L191.516 47.132H190.496V53H191.624ZM197.95 45.74C198.358 45.74 198.694 45.404 198.694 44.996C198.694 44.576 198.358 44.252 197.95 44.252C197.542 44.252 197.206 44.576 197.206 44.996C197.206 45.404 197.542 45.74 197.95 45.74ZM197.398 53H198.526V47.132H197.398V53ZM204.376 53V52.052H201.184L204.376 48.056V47.132H199.804V48.08H202.972L199.804 52.088V53H204.376ZM207.364 53.144C208.312 53.144 209.116 52.724 209.416 52.052L209.536 53H210.496V49.316C210.496 47.732 209.512 46.964 208.06 46.964C206.548 46.964 205.54 47.768 205.54 48.992H206.524C206.524 48.284 207.064 47.864 208.012 47.864C208.804 47.864 209.392 48.212 209.392 49.196V49.364L207.544 49.508C206.164 49.616 205.36 50.288 205.36 51.368C205.36 52.436 206.104 53.144 207.364 53.144ZM207.688 52.268C206.956 52.268 206.5 51.956 206.5 51.332C206.5 50.756 206.908 50.372 207.904 50.276L209.404 50.156V50.468C209.404 51.572 208.756 52.268 207.688 52.268ZM213.62 53V48.08H214.772V47.132H213.62V45.296H212.492V47.132H211.34V48.08H212.492V53H213.62ZM216.337 45.74C216.745 45.74 217.081 45.404 217.081 44.996C217.081 44.576 216.745 44.252 216.337 44.252C215.929 44.252 215.593 44.576 215.593 44.996C215.593 45.404 215.929 45.74 216.337 45.74ZM215.785 53H216.913V47.132H215.785V53ZM218.166 50.06C218.166 51.872 219.462 53.144 221.226 53.144C222.978 53.144 224.274 51.872 224.274 50.06C224.274 48.248 222.978 46.976 221.226 46.976C219.462 46.976 218.166 48.248 218.166 50.06ZM219.306 50.06C219.306 48.836 220.086 47.984 221.226 47.984C222.354 47.984 223.146 48.836 223.146 50.06C223.146 51.284 222.354 52.136 221.226 52.136C220.086 52.136 219.306 51.284 219.306 50.06ZM226.651 53V49.892C226.651 48.752 227.263 47.996 228.319 47.996C229.183 47.996 229.735 48.476 229.735 49.664V53H230.863V49.412C230.863 47.912 230.155 46.964 228.607 46.964C227.779 46.964 227.035 47.36 226.663 48.032L226.543 47.132H225.523V53H226.651ZM231.875 51.296C231.875 52.412 232.751 53.144 234.131 53.144C235.523 53.144 236.483 52.436 236.483 51.32C236.483 50.444 235.991 49.988 234.995 49.748L233.963 49.496C233.387 49.352 233.099 49.088 233.099 48.692C233.099 48.152 233.495 47.84 234.203 47.84C234.887 47.84 235.283 48.212 235.307 48.8H236.387C236.363 47.684 235.523 46.964 234.239 46.964C232.943 46.964 232.031 47.648 232.031 48.728C232.031 49.592 232.523 50.108 233.567 50.36L234.599 50.6C235.211 50.756 235.403 50.996 235.403 51.392C235.403 51.932 234.947 52.256 234.155 52.256C233.411 52.256 232.955 51.896 232.955 51.296H231.875ZM238.504 53.144C238.96 53.144 239.356 52.76 239.356 52.304C239.356 51.836 238.96 51.452 238.504 51.452C238.036 51.452 237.64 51.836 237.64 52.304C237.64 52.76 238.036 53.144 238.504 53.144Z" fill="#3A3A3A"/>
<mask id="mask0_54_663" style="mask-type:alpha" maskUnits="userSpaceOnUse" x="24" y="90" width="95" height="12">
<g clip-path="url(#clip1_54_663)">
<path d="M36.2823 101.08H39.7519L41.6121 90.4333H38.1424L37.4564 94.246H34.4485L35.1345 90.4333H31.6648L29.8047 101.08H33.2743L33.9736 97.0956H36.9815L36.2823 101.08Z" fill="white"/>
<path d="M43.578 90.4202L42.5226 96.3437C42.4302 96.8054 42.3906 97.2539 42.3906 97.6761C42.3906 100.816 45.1347 101.291 46.7838 101.291C50.2402 101.291 51.731 100.143 52.2719 97.0429L53.4328 90.407H49.9632L48.9737 95.9743C48.6571 97.7157 48.4328 98.626 47.14 98.626C46.2956 98.626 45.8867 98.1774 45.8867 97.2539C45.8867 96.8977 45.9394 96.4624 46.045 95.9215L47.0476 90.407H43.578V90.4202Z" fill="white"/>
<path d="M71.7705 101.08H75.2402L75.7283 98.3361H77.3642C80.3853 98.3361 82.0607 96.7002 82.0607 93.7187C82.0607 91.6211 80.6096 90.4205 78.0634 90.4205H73.6307L71.7705 101.08ZM77.1795 95.7108H76.1768L76.6386 93.2042H77.5753C78.3404 93.2042 78.7494 93.5868 78.7494 94.286C78.7494 95.1699 78.1557 95.7108 77.1795 95.7108Z" fill="white"/>
<path d="M88.802 90.1959C85.0289 90.1959 82.7729 92.6366 82.7729 96.7395C82.7729 99.5891 84.5671 101.304 87.5751 101.304C91.3481 101.304 93.6041 98.8635 93.6041 94.7606C93.6173 91.8978 91.8231 90.1959 88.802 90.1959ZM87.7861 98.5468C86.889 98.5468 86.3613 97.9004 86.3613 96.8186C86.3613 96.4096 86.4009 96.0534 86.4801 95.6445C86.7439 94.2461 87.1925 92.9664 88.6041 92.9664C89.5012 92.9664 90.0289 93.6128 90.0289 94.6946C90.0289 95.1036 89.9893 95.4598 89.9102 95.8687C89.6463 97.254 89.1977 98.5468 87.7861 98.5468Z" fill="white"/>
<path d="M105.675 101.08H109.145L110.517 93.283H113.129L113.63 90.4333H104.752L104.25 93.283H107.021L105.675 101.08Z" fill="white"/>
<path d="M99.9236 94.3648C98.8287 94.0218 98.3801 93.8767 98.3801 93.3621C98.3801 93.0191 98.6044 92.6102 99.264 92.6102C99.7521 92.6102 100.161 92.8872 100.319 93.2962L103.38 92.465C103.024 90.9611 101.731 90.1959 99.5015 90.1959C95.3062 90.1959 94.9764 93.0059 94.9764 93.8635C94.9764 95.6049 95.8999 96.6735 97.9052 97.2276C98.4329 97.3727 99.0397 97.531 99.0397 98.1115C99.0397 98.5732 98.6967 98.8635 98.1031 98.8635C97.5622 98.8635 96.9817 98.5468 96.7838 97.9928L93.7627 98.8107C94.0925 100.394 95.5833 101.291 97.9184 101.291C99.6994 101.291 102.681 100.816 102.681 97.597C102.694 95.9875 101.784 94.9321 99.9236 94.3648Z" fill="black"/>
<path d="M27.8654 101.08L29.7388 90.4333H24V101.08H27.8654Z" fill="#0DBE98"/>
<path d="M115.121 90.4333L113.261 101.08H119V90.4333H115.121Z" fill="#0DBE98"/>
<path d="M57.575 97.9403H60.4906L60.9655 95.2622H58.05L58.3798 93.2833H62.4563L62.9576 90.4205H55.4114L53.5513 101.08H57.0209L57.575 97.9403Z" fill="black"/>
<path d="M66.6648 97.9403H69.5936L70.0685 95.2622H67.153L67.4828 93.2833H71.5593L72.0606 90.4205H64.5145L62.6543 101.08H66.124L66.6648 97.9403Z" fill="black"/>
</g>
</mask>
<g mask="url(#mask0_54_663)">
<rect x="-64.8252" y="33.6709" width="527.725" height="213.275" fill="#838383"/>
</g>
<mask id="mask1_54_663" style="mask-type:alpha" maskUnits="userSpaceOnUse" x="151" y="86" width="95" height="19">
<g clip-path="url(#clip2_54_663)">
<path d="M151 86.9796H157.965C159.291 86.9796 160.286 87.3113 161.023 87.864C161.834 88.5273 162.276 89.4854 162.276 90.6646C162.276 92.0281 161.723 92.8757 160.618 93.3916V93.4653C162.092 93.9443 162.939 95.2709 162.939 96.8555C162.939 98.3663 162.35 99.5456 161.392 100.283C160.581 100.872 159.549 101.13 158.149 101.13H151V86.9796ZM157.265 92.5072C158.002 92.5072 158.554 92.1018 158.554 91.2542C158.554 90.4435 158.002 90.0382 157.228 90.0382H154.832V92.4703H157.265V92.5072ZM157.596 97.9978C158.444 97.9978 159.07 97.4819 159.07 96.5607C159.07 95.5657 158.407 95.1235 157.596 95.1235H154.869V98.0347H157.596V97.9978Z" fill="black"/>
<path d="M163.566 86.9796H167.214V101.167H163.566V86.9796Z" fill="black"/>
<path d="M167.951 96.1188C167.951 92.9128 170.015 90.7755 173.221 90.7755C176.427 90.7755 178.453 92.9497 178.453 96.1188C178.453 99.3248 176.427 101.462 173.221 101.462C170.015 101.462 167.951 99.3248 167.951 96.1188ZM174.805 96.1188C174.805 94.35 174.253 93.2445 173.147 93.2445C172.042 93.2445 171.526 94.35 171.526 96.1188C171.526 97.8876 172.042 99.03 173.147 99.03C174.253 98.9931 174.805 97.8876 174.805 96.1188Z" fill="black"/>
<path d="M178.859 96.1188C178.859 92.9128 180.922 90.7755 184.128 90.7755C187.334 90.7755 189.324 92.9128 189.324 96.1188C189.324 99.3248 187.298 101.462 184.092 101.462C180.923 101.462 178.859 99.3248 178.859 96.1188ZM185.713 96.1188C185.713 94.35 185.16 93.2445 184.055 93.2445C182.949 93.2445 182.433 94.35 182.433 96.1188C182.433 97.8876 182.949 99.03 184.055 99.03C185.16 98.9931 185.713 97.8876 185.713 96.1188Z" fill="black"/>
<path d="M190.062 91.0332H193.452V92.5441H193.525C194.189 91.3649 195.11 90.7384 196.584 90.7384C197.874 90.7384 198.832 91.3649 199.311 92.4704H199.385C200.195 91.1438 201.264 90.7384 202.517 90.7384C204.875 90.7384 205.87 92.4704 205.87 94.7919V101.13H202.333V95.4184C202.333 94.3866 202.001 93.7233 201.117 93.7233C200.232 93.7233 199.79 94.534 199.79 95.6395V101.13H196.252V95.4184C196.252 94.3866 195.921 93.7233 195.036 93.7233C194.152 93.7233 193.71 94.534 193.71 95.6395V101.13H190.062V91.0332Z" fill="black"/>
<path d="M210.329 99.8035H210.292V101.13H206.902V86.9796H210.439V92.065H210.513C211.176 91.1805 212.098 90.7015 213.387 90.7015C215.93 90.7015 217.404 92.9862 217.404 96.0448C217.404 99.4719 215.82 101.462 213.166 101.462C212.061 101.462 210.919 100.946 210.329 99.8035ZM213.756 96.0079C213.756 94.3865 213.166 93.3179 212.098 93.3179C210.992 93.3179 210.329 94.3865 210.329 96.0079C210.329 97.6293 211.029 98.698 212.098 98.698C213.166 98.698 213.756 97.6662 213.756 96.0079Z" fill="black"/>
<path d="M217.81 96.0817C217.81 92.9126 219.91 90.7384 222.932 90.7384C224.443 90.7384 225.585 91.2175 226.469 92.065C227.649 93.2074 228.164 94.9762 228.128 97.0398H221.347C221.495 98.2927 222.084 98.956 223.153 98.956C223.779 98.956 224.332 98.6612 224.553 97.9979H227.98C227.391 100.319 225.585 101.462 223.042 101.462C219.91 101.425 217.81 99.2877 217.81 96.0817ZM221.347 95.013H224.59C224.516 93.797 223.853 93.1705 223.005 93.1705C222.011 93.1337 221.458 93.8338 221.347 95.013Z" fill="black"/>
<path d="M232.144 92.7647H232.218C232.955 91.3644 233.913 90.8116 235.129 90.8116C235.424 90.8116 235.608 90.8485 235.719 90.9222V94.0176H235.645C233.544 93.6491 232.328 94.6441 232.328 96.9288V101.167H228.754V91.0327H232.144V92.7647Z" fill="black"/>
<path d="M236.087 101.167H239.514C239.662 101.609 240.104 102.015 240.951 102.015C242.094 102.015 242.499 101.314 242.499 100.246V99.5088H242.425C241.873 100.172 241.099 100.651 239.993 100.651C237.819 100.651 235.903 99.0297 235.903 95.8606C235.903 92.9494 237.451 90.7015 239.809 90.7015C241.172 90.7015 241.983 91.2543 242.536 92.1018H242.61V90.9963H246V99.7667C246 101.388 245.447 102.641 244.599 103.378C243.715 104.152 242.462 104.484 241.025 104.484C238.298 104.52 236.419 103.415 236.087 101.167ZM242.646 95.7132C242.646 94.4603 242.057 93.4285 241.025 93.4285C240.03 93.4285 239.404 94.3129 239.404 95.7132C239.404 97.0766 240.03 98.0347 241.025 98.0347C242.02 98.0347 242.646 97.0398 242.646 95.7132Z" fill="black"/>
</g>
</mask>
<g mask="url(#mask1_54_663)">
<rect x="132.475" y="49.4546" width="132.05" height="91.675" fill="#838383"/>
</g>
<mask id="mask2_54_663" style="mask-type:alpha" maskUnits="userSpaceOnUse" x="278" y="85" width="40" height="21">
<g clip-path="url(#clip3_54_663)">
<path d="M298 85.75V92.4167H291.333V105.75H284.667V92.4167H278V85.75H298Z" fill="#0A9E01"/>
<path d="M318 85.75H304.667V92.4167H318V85.75Z" fill="#0A9E01"/>
<path d="M318 99.0837V105.75H298V92.417H304.667V99.0837H318Z" fill="#0A9E01"/>
</g>
</mask>
<g mask="url(#mask2_54_663)">
<rect x="228.5" y="37.25" width="139" height="96.5" fill="#838383"/>
</g>
<path d="M361.372 82.1289V90.7802L386.231 90.7794V82.1289H361.372ZM382.807 84.4604L383.039 84.4651C383.085 84.4667 383.122 84.5071 383.122 84.5443V88.4021L382.806 88.1297C382.819 88.106 382.83 88.0822 382.83 88.0506V84.5221C382.826 84.5015 382.82 84.4857 382.814 84.4707L382.807 84.4604ZM383.027 88.4662H381.065C381.056 88.4134 381.036 88.3632 381.006 88.3189C380.976 88.2747 380.936 88.2374 380.891 88.2097H382.655C382.673 88.2107 382.692 88.2069 382.709 88.1986L383.027 88.4662ZM378.794 84.5189C378.841 84.4852 378.896 84.464 378.954 84.4572C378.972 84.4572 378.994 84.454 379.014 84.454H379.031C379.387 84.454 379.811 84.4802 380.139 84.6029C380.468 84.7256 380.689 84.9298 380.69 85.3154H380.808C380.811 84.9369 381.032 84.7374 381.361 84.6029C381.678 84.4794 382.113 84.454 382.465 84.454H382.505C382.522 84.454 382.537 84.4572 382.552 84.4572C382.587 84.4627 382.621 84.472 382.654 84.4849C382.675 84.496 382.691 84.5063 382.7 84.5126L382.704 88.0411C382.704 88.0704 382.681 88.0925 382.657 88.0925H378.841C378.815 88.0925 378.794 88.0688 378.794 88.0411V84.5182V84.5189ZM378.841 88.2105H380.505C380.415 88.2659 380.349 88.3688 380.331 88.467H378.452C378.444 88.467 378.44 88.4654 378.432 88.4654L378.76 88.1883C378.785 88.2026 378.813 88.2121 378.841 88.2121V88.2105ZM378.376 84.5372C378.376 84.5079 378.41 84.4683 378.457 84.458L378.692 84.4532C378.683 84.4692 378.677 84.4871 378.676 84.5055V88.0339C378.676 88.0529 378.679 88.0719 378.685 88.0878L378.368 88.3514V84.5277L378.376 84.5372ZM376.142 84.4722C376.185 84.4722 376.224 84.5174 376.224 84.5514V88.3831L375.909 88.1187C375.918 88.0993 375.923 88.0783 375.923 88.0569V84.5261C375.919 84.5055 375.914 84.4928 375.907 84.4786L376.141 84.4794L376.142 84.4722ZM376.154 88.4749H374.166C374.158 88.4225 374.14 88.3722 374.112 88.3274C374.083 88.2826 374.046 88.2444 374.002 88.2152H375.757C375.781 88.2152 375.804 88.2089 375.836 88.1994L376.154 88.4749ZM373.906 85.1958C373.908 84.8649 374.082 84.6892 374.337 84.5839C374.593 84.4786 374.925 84.454 375.202 84.454L375.645 84.4619C375.682 84.4666 375.718 84.4773 375.752 84.4936C375.771 84.5015 375.79 84.5142 375.8 84.5221L375.803 84.5253V88.0514C375.803 88.0775 375.782 88.0965 375.758 88.0965H373.907L373.906 85.1958ZM371.893 84.5245C371.902 84.5189 371.93 84.4984 371.962 84.4849C371.993 84.474 372.025 84.4674 372.058 84.4651L372.509 84.4532C372.783 84.4532 373.114 84.477 373.368 84.5831C373.618 84.6939 373.789 84.8649 373.789 85.195V88.0949H371.945C371.916 88.0949 371.894 88.0759 371.894 88.0498V84.5237L371.893 84.5245ZM371.943 88.2137H373.596C373.552 88.2426 373.514 88.2808 373.485 88.3256C373.457 88.3704 373.438 88.4207 373.431 88.4733H371.551C371.544 88.4733 371.536 88.4733 371.526 88.4694L371.859 88.1907C371.882 88.2065 371.911 88.2137 371.943 88.2137ZM371.475 84.5427C371.475 84.5174 371.511 84.4635 371.558 84.4635L371.791 84.4627C371.783 84.477 371.778 84.4904 371.775 84.5102V88.0411C371.776 88.0583 371.78 88.0752 371.787 88.0909L371.475 88.3546L371.475 84.5427ZM369.007 84.4635L369.24 84.4643C369.283 84.4643 369.323 84.5094 369.323 84.5435V88.3847L369.006 88.1155C369.014 88.0949 369.02 88.0727 369.02 88.049V84.5182C369.02 84.4984 369.014 84.4849 369.006 84.4707L369.007 84.4635ZM369.249 88.467H367.265C367.257 88.4148 367.239 88.3648 367.211 88.3201C367.183 88.2754 367.146 88.237 367.102 88.2073H368.855C368.879 88.2073 368.904 88.2034 368.925 88.1947L369.249 88.467ZM367.007 85.1879C367.01 84.857 367.181 84.6812 367.436 84.5759C367.691 84.4707 368.025 84.4461 368.304 84.4461L368.744 84.454C368.755 84.454 368.81 84.4651 368.851 84.4857C368.868 84.4931 368.885 84.5027 368.899 84.5142L368.903 84.5174V88.0434C368.903 88.0696 368.882 88.0886 368.854 88.0886H367.005L367.007 85.1879ZM364.992 84.5166C365.001 84.511 365.03 84.4904 365.071 84.477C365.102 84.4667 365.134 84.46 365.166 84.4572L365.616 84.4453C365.89 84.4453 366.219 84.4691 366.472 84.5752C366.724 84.686 366.894 84.857 366.897 85.1871L366.896 88.087H365.042C365.014 88.087 364.991 88.068 364.991 88.0419L364.992 84.5166ZM365.042 88.2129H366.704C366.614 88.2722 366.556 88.3649 366.539 88.4725H364.646C364.63 88.4725 364.62 88.4725 364.612 88.467L364.942 88.1852C364.968 88.2026 365.002 88.2129 365.034 88.2129H365.042ZM364.567 84.5419C364.567 84.5166 364.603 84.4627 364.648 84.4627L364.879 84.4619C364.871 84.4762 364.868 84.4873 364.865 84.5094V88.0403C364.865 88.0537 364.868 88.0664 364.873 88.083L364.567 88.3427V84.5419ZM364.152 88.7567C364.09 88.7567 364.043 88.7053 364.043 88.6459V88.068C363.881 88.0474 363.755 87.9461 363.755 87.8265C363.755 87.707 363.882 87.6049 364.043 87.5835V85.7191C363.881 85.6954 363.755 85.5972 363.755 85.4777C363.755 85.3581 363.882 85.2592 364.043 85.2354V84.496C364.043 84.4358 364.091 84.3891 364.152 84.3891L364.475 84.4524C364.459 84.4762 364.449 84.5079 364.448 84.5411V88.4092C364.449 88.5161 364.54 88.5913 364.644 88.5913H366.524C366.533 88.653 366.559 88.7084 366.596 88.7559L364.152 88.7567ZM366.998 88.7567H366.78C366.737 88.7353 366.7 88.7022 366.674 88.661C366.648 88.6199 366.635 88.5725 366.634 88.524C366.634 88.4566 366.661 88.392 366.709 88.3443C366.756 88.2966 366.821 88.2699 366.889 88.2699C366.956 88.2699 367.021 88.2966 367.068 88.3443C367.116 88.392 367.143 88.4566 367.143 88.524C367.143 88.6269 367.083 88.714 366.997 88.7567H366.998ZM369.995 87.8273C369.995 87.9461 369.87 88.0442 369.708 88.0688V88.6467C369.708 88.7045 369.661 88.7575 369.6 88.7575H367.179C367.216 88.7085 367.241 88.652 367.253 88.5921H369.236C369.336 88.5921 369.428 88.5169 369.428 88.41V84.5419C369.428 84.4976 369.412 84.4596 369.389 84.4295L369.599 84.3899C369.66 84.3899 369.708 84.4374 369.708 84.4968V85.237C369.87 85.2607 369.994 85.3573 369.994 85.4784C369.994 85.5996 369.869 85.6962 369.708 85.7199V87.5843C369.871 87.608 369.995 87.7094 369.995 87.8273ZM371.048 88.7567C370.989 88.7567 370.942 88.7053 370.942 88.6459V88.068C370.784 88.0474 370.652 87.9461 370.652 87.8265C370.652 87.707 370.776 87.6049 370.942 87.5835V85.7191C370.784 85.6954 370.652 85.5972 370.652 85.4777C370.652 85.3581 370.776 85.2592 370.942 85.2354V84.496C370.942 84.4358 370.988 84.3891 371.048 84.3891L371.365 84.4524C371.349 84.4778 371.341 84.5079 371.341 84.5411V88.4092C371.341 88.5161 371.431 88.5913 371.535 88.5913H373.415C373.426 88.6511 373.451 88.7075 373.488 88.7559L371.048 88.7567ZM373.896 88.7567H373.676C373.594 88.714 373.532 88.6277 373.532 88.524C373.532 88.3862 373.647 88.2722 373.789 88.2722C373.856 88.272 373.92 88.2984 373.968 88.3456C374.015 88.3928 374.042 88.4569 374.043 88.524C374.044 88.6269 373.981 88.714 373.896 88.7567ZM376.893 87.8273C376.893 87.9461 376.771 88.0442 376.608 88.0688V88.6467C376.608 88.6757 376.596 88.7034 376.576 88.724C376.555 88.7446 376.528 88.7563 376.499 88.7567H374.08C374.116 88.7077 374.141 88.6511 374.153 88.5913H376.134C376.237 88.5913 376.33 88.5161 376.33 88.4092V84.5411C376.33 84.4968 376.314 84.4588 376.289 84.4287L376.499 84.3891C376.561 84.3891 376.609 84.4366 376.609 84.496V85.2362C376.772 85.2599 376.894 85.3565 376.894 85.4777C376.894 85.5988 376.772 85.6954 376.609 85.7191V87.5835C376.772 87.6072 376.894 87.7086 376.894 87.8265L376.893 87.8273ZM377.948 88.7567C377.893 88.7567 377.841 88.7053 377.841 88.6459V88.068C377.683 88.0474 377.554 87.9461 377.554 87.8265C377.554 87.707 377.677 87.6049 377.841 87.5835V85.7191C377.683 85.6954 377.554 85.5972 377.554 85.4777C377.554 85.3581 377.677 85.2592 377.841 85.2354V84.496C377.841 84.4358 377.891 84.3891 377.948 84.3891L378.269 84.4524C378.255 84.478 378.248 84.5061 378.247 84.5348V88.4029C378.249 88.5074 378.338 88.5818 378.441 88.5818H380.321C380.332 88.6467 380.36 88.7037 380.398 88.7559L377.948 88.7567ZM380.797 88.7567H380.579C380.5 88.714 380.434 88.6277 380.434 88.524C380.434 88.4573 380.461 88.3936 380.508 88.3464C380.555 88.2993 380.619 88.2727 380.686 88.2722C380.828 88.2722 380.943 88.3862 380.943 88.524C380.943 88.6269 380.88 88.714 380.797 88.7567ZM383.795 87.8273C383.795 87.9461 383.67 88.049 383.504 88.0688V88.6467C383.504 88.7045 383.458 88.7575 383.399 88.7575H380.978C381.017 88.7067 381.043 88.6468 381.054 88.5834H383.031C383.136 88.5834 383.229 88.5089 383.229 88.4013V84.5356C383.229 84.4944 383.215 84.4596 383.194 84.4295L383.399 84.3899C383.458 84.3899 383.504 84.4374 383.504 84.4968V85.2362C383.662 85.2599 383.795 85.3565 383.795 85.4784C383.795 85.6004 383.67 85.6962 383.504 85.7199V87.5843C383.662 87.608 383.795 87.7094 383.795 87.8273ZM367.964 87.1623C367.842 87.1623 367.808 87.1322 367.808 87.0198V86.4007C367.992 86.4007 368.087 86.4759 368.111 86.7966H368.157V85.9329H368.111C368.081 86.2495 367.987 86.3176 367.808 86.3144V85.7207C367.808 85.6099 367.84 85.6019 367.943 85.6019C368.194 85.6019 368.326 85.6653 368.367 86.0294H368.413V85.5133H367.34V85.579C367.419 85.5869 367.498 85.5909 367.498 85.7611V87.0016C367.498 87.1552 367.44 87.1655 367.34 87.1797V87.2447H368.431L368.506 86.7103H368.452C368.335 87.1061 368.148 87.1647 367.964 87.1647L367.964 87.1623ZM381.651 87.1101C381.709 87.1101 381.791 87.1892 381.97 87.1892C382.31 87.1892 382.431 86.8789 382.431 86.6509C382.431 86.3738 382.29 86.225 382.225 86.1759L381.954 85.9899C381.796 85.883 381.762 85.8268 381.762 85.689C381.762 85.5307 381.864 85.446 381.959 85.446C382.181 85.446 382.292 85.7389 382.327 85.917H382.377V85.3629H382.324C382.313 85.4143 382.305 85.4523 382.261 85.4523C382.209 85.4523 382.121 85.3668 381.972 85.3668C381.617 85.3668 381.56 85.7152 381.56 85.8735C381.56 85.9922 381.56 86.2107 381.88 86.4277L382.005 86.5068C382.123 86.5844 382.21 86.6469 382.21 86.8235C382.21 86.8607 382.205 87.114 381.973 87.114C381.735 87.114 381.627 86.8211 381.589 86.5646H381.535V87.1979H381.589C381.598 87.156 381.605 87.1188 381.644 87.1188L381.651 87.1101ZM365.39 85.7207L365.865 87.2542H365.915L366.339 85.7532C366.383 85.6107 366.406 85.5592 366.507 85.5434V85.4784H366.111V85.5434C366.218 85.5513 366.272 85.5592 366.272 85.6589C366.272 85.7112 366.251 85.7777 366.235 85.8371L365.998 86.6762L365.756 85.8687C365.739 85.8054 365.699 85.6962 365.699 85.6471C365.699 85.5521 365.743 85.5521 365.861 85.5418V85.4769H365.228V85.5418C365.307 85.5576 365.336 85.5655 365.384 85.7191L365.39 85.7207ZM372.813 87.1299C372.693 87.1061 372.651 87.0982 372.651 86.8955V86.3936H372.701L373.087 87.1964H373.467V87.1299C373.444 87.1299 373.416 87.1291 373.39 87.0824L373.016 86.354C373.116 86.3081 373.307 86.2305 373.307 85.9139C373.307 85.484 372.915 85.4642 372.785 85.4642H372.186V85.5323C372.292 85.5402 372.35 85.5449 372.35 85.7634V86.8955C372.35 87.1014 372.311 87.1093 372.186 87.1299V87.1964H372.813V87.1299ZM372.651 85.6605C372.659 85.579 372.664 85.5521 372.768 85.5521C372.916 85.5521 372.992 85.6629 372.992 85.921C372.992 86.2511 372.897 86.3168 372.652 86.3105L372.651 85.6605ZM379.33 85.5481V86.8939C379.33 87.1077 379.288 87.1156 379.15 87.1283V87.1948H379.816V87.1204C379.676 87.1077 379.632 87.1022 379.632 86.886V85.5402C379.76 85.5457 379.953 85.5639 379.988 85.9732H380.044L380.041 85.4507H378.923L378.919 85.9669H378.974C379.009 85.5552 379.199 85.5394 379.33 85.5339V85.5481ZM380.462 87.1275C380.399 87.1219 380.309 87.1148 380.309 87.0182C380.309 86.9747 380.341 86.8694 380.394 86.6834H380.812C380.835 86.7657 380.893 86.9565 380.893 87.0262C380.893 87.1109 380.861 87.1148 380.747 87.1275V87.1877H381.349V87.1204C381.26 87.1259 381.23 87.0364 381.146 86.7641L380.733 85.4183H380.682L380.27 86.8195C380.212 87.0127 380.187 87.1006 380.086 87.1204V87.1805H380.464L380.462 87.1275ZM380.595 85.9661L380.781 86.586H380.419L380.595 85.9661ZM374.499 85.5323C374.578 85.5378 374.671 85.5434 374.671 85.7096V86.947C374.671 87.1053 374.599 87.1164 374.499 87.1291V87.1956H375.151V87.1291C375.048 87.1212 374.974 87.1109 374.974 86.947V85.712C374.974 85.541 375.062 85.5378 375.151 85.5347V85.4579H374.499V85.5323ZM378.286 91.5806C378.444 91.8228 378.55 92.095 378.598 92.3802C378.733 93.1853 378.34 94.0364 376.868 94.1219C376.845 95.3284 376.548 95.8216 375.017 95.8477C375.15 97.1318 374.479 97.5498 373.756 97.5498C373.033 97.5498 372.359 97.1326 372.492 95.8477C370.962 95.82 370.666 95.3268 370.639 94.1219C369.167 94.0451 368.777 93.194 368.914 92.3802C368.958 92.0936 369.069 91.8157 369.224 91.5885H361.371V91.9875C361.384 106.754 373.581 113.103 373.618 113.123L373.802 113.222L373.99 113.123C374.026 113.103 386.225 106.746 386.237 91.9875V91.5885L378.286 91.5806ZM368.097 105.123C368.39 104.969 368.614 104.519 368.667 104.212C368.747 103.817 368.821 103.658 369.032 103.644C369.242 103.63 369.324 103.817 369.396 104.212C369.448 104.519 369.671 104.968 369.964 105.123C370.146 105.219 370.735 105.234 370.616 105.579C370.534 105.736 370.426 106.057 370.267 105.915C370.109 105.772 369.83 105.4 369.713 105.376C369.607 105.358 369.622 105.519 369.667 105.574C369.729 105.644 369.915 105.915 370.021 106.039C370.156 106.191 370.197 106.47 369.962 106.58C369.727 106.69 369.487 106.55 369.492 106.424C369.5 106.234 369.387 105.692 369.284 105.692C369.203 105.692 369.199 105.835 369.208 105.987C369.176 106.306 369.39 106.562 369.366 106.727C369.337 106.887 369.303 107.057 369.023 107.054C368.741 107.046 368.706 106.895 368.679 106.727C368.653 106.568 368.869 106.306 368.834 105.987C368.844 105.834 368.841 105.692 368.759 105.692C368.659 105.692 368.541 106.235 368.553 106.424C368.558 106.551 368.316 106.691 368.082 106.58C367.847 106.469 367.888 106.19 368.021 106.039C368.127 105.914 368.316 105.645 368.377 105.574C368.42 105.519 368.439 105.358 368.331 105.376C368.222 105.4 367.948 105.77 367.786 105.915C367.625 106.059 367.519 105.736 367.438 105.579C367.319 105.234 367.907 105.219 368.089 105.123H368.097ZM368.298 104.11C368.486 104.088 368.392 104.284 368.372 104.458C368.352 104.632 368.306 104.648 368.124 104.404C367.943 104.16 368.095 104.132 368.298 104.111V104.11ZM369.755 104.127C369.957 104.154 370.111 104.182 369.929 104.42C369.747 104.664 369.701 104.645 369.681 104.475C369.66 104.306 369.566 104.108 369.755 104.125V104.127ZM378.432 105.692C378.331 105.692 378.218 106.235 378.226 106.424C378.231 106.551 377.992 106.691 377.755 106.58C377.518 106.469 377.563 106.19 377.696 106.039C377.803 105.914 377.992 105.645 378.052 105.574C378.095 105.519 378.111 105.358 378.004 105.376C377.897 105.4 377.62 105.77 377.45 105.915C377.28 106.059 377.183 105.736 377.102 105.579C376.98 105.235 377.57 105.219 377.751 105.123C378.044 104.969 378.268 104.519 378.321 104.212C378.39 103.817 378.479 103.658 378.685 103.644C378.891 103.63 378.975 103.817 379.049 104.212C379.101 104.519 379.326 104.968 379.619 105.123C379.801 105.219 380.39 105.234 380.271 105.579C380.188 105.736 380.081 106.057 379.92 105.915C379.759 105.772 379.485 105.4 379.376 105.376C379.271 105.358 379.286 105.519 379.33 105.574C379.394 105.644 379.581 105.915 379.688 106.039C379.823 106.191 379.862 106.47 379.625 106.58C379.387 106.69 379.15 106.55 379.156 106.424C379.164 106.234 379.049 105.692 378.948 105.692C378.866 105.692 378.869 105.835 378.873 105.987C378.838 106.306 379.055 106.562 379.026 106.727C379 106.887 378.965 107.057 378.686 107.054C378.403 107.046 378.369 106.895 378.341 106.727C378.314 106.568 378.529 106.306 378.496 105.987C378.507 105.834 378.505 105.692 378.421 105.692H378.432ZM377.962 104.109C378.152 104.087 378.055 104.283 378.038 104.457C378.02 104.631 377.969 104.647 377.79 104.403C377.61 104.159 377.761 104.132 377.964 104.11L377.962 104.109ZM379.419 104.126C379.623 104.153 379.773 104.182 379.593 104.419C379.413 104.663 379.365 104.644 379.345 104.474C379.326 104.305 379.228 104.107 379.418 104.125L379.419 104.126ZM379.593 94.6863C379.413 94.9286 379.365 94.9112 379.345 94.7394C379.326 94.5676 379.228 94.3728 379.418 94.391C379.622 94.4132 379.773 94.4464 379.593 94.6863ZM377.961 94.3728C378.151 94.3522 378.053 94.5494 378.036 94.7188C378.019 94.8882 377.968 94.9112 377.788 94.6681C377.608 94.4251 377.76 94.3934 377.962 94.3728H377.961ZM377.76 95.3862C378.053 95.2326 378.277 94.7869 378.33 94.4773C378.399 94.0791 378.488 93.9232 378.694 93.9073C378.9 93.9034 378.984 94.0799 379.058 94.4773C379.109 94.794 379.335 95.2318 379.628 95.3862C379.81 95.4843 380.398 95.497 380.28 95.8429C380.196 96.0044 380.09 96.3211 379.929 96.1786C379.768 96.0361 379.493 95.664 379.385 95.6419C379.277 95.6197 379.295 95.7891 379.339 95.8374C379.402 95.911 379.589 96.1778 379.697 96.3013C379.831 96.4541 379.871 96.7367 379.634 96.8555C379.396 96.9742 379.159 96.8238 379.165 96.6972C379.173 96.5072 379.058 95.9641 378.957 95.9641C378.874 95.9641 378.878 96.1034 378.881 96.2602C378.847 96.5792 379.064 96.8333 379.035 96.9988C379.007 97.1642 378.974 97.3297 378.695 97.3257C378.411 97.3194 378.378 97.1627 378.349 96.9988C378.321 96.8349 378.538 96.5792 378.505 96.2602C378.517 96.1034 378.515 95.9641 378.429 95.9641C378.329 95.9641 378.216 96.5079 378.224 96.6972C378.228 96.8214 377.989 96.9639 377.753 96.8555C377.516 96.747 377.56 96.462 377.693 96.3124C377.801 96.1857 377.99 95.9189 378.049 95.8374C378.092 95.7899 378.109 95.6213 378.002 95.6419C377.895 95.6624 377.618 96.0345 377.448 96.1786C377.278 96.3227 377.181 96.0044 377.099 95.8429C376.978 95.4962 377.568 95.4851 377.749 95.3862H377.76ZM378.694 99.2653C378.559 97.9037 379.417 97.5126 380.437 97.5909C380.303 96.2293 380.991 95.7836 382.209 95.835C382.047 94.2414 383.122 94.0577 383.955 94.1108C383.826 92.9233 384.672 92.434 385.246 92.3739H385.428C385.349 97.8364 383.523 102.056 381.336 105.204C380.429 104.979 380.284 104.244 380.356 103.584C379.016 103.742 378.479 102.772 378.665 101.856C378.155 102.039 377.054 101.777 376.921 100.808C376.788 99.8393 377.566 99.2653 378.694 99.2653ZM374.577 99.2542C374.78 99.2748 374.933 99.3057 374.753 99.5456C374.572 99.7854 374.525 99.7696 374.505 99.5986C374.485 99.4276 374.388 99.2329 374.584 99.2542H374.577ZM373.121 99.2329C373.307 99.2115 373.213 99.4102 373.2 99.578C373.186 99.7459 373.134 99.7696 372.962 99.5282C372.79 99.2867 372.933 99.255 373.138 99.2329H373.121ZM372.919 100.246C373.21 100.093 373.436 99.6445 373.487 99.3358C373.557 98.9415 373.643 98.7816 373.851 98.7674C374.059 98.7531 374.144 98.9415 374.212 99.3358C374.266 99.6524 374.491 100.092 374.782 100.246C374.966 100.343 375.555 100.357 375.435 100.705C375.351 100.866 375.245 101.184 375.085 101.041C374.925 100.898 374.647 100.525 374.542 100.503C374.433 100.484 374.45 100.645 374.495 100.701C374.555 100.78 374.743 101.041 374.851 101.165C374.986 101.318 375.024 101.596 374.789 101.708C374.555 101.819 374.313 101.676 374.318 101.549C374.33 101.358 374.211 100.817 374.11 100.817C374.029 100.817 374.027 100.955 374.031 101.108C373.999 101.424 374.213 101.687 374.186 101.852C374.159 102.016 374.124 102.182 373.844 102.178C373.564 102.174 373.527 102.02 373.504 101.852C373.474 101.688 373.688 101.432 373.656 101.108C373.665 100.956 373.661 100.817 373.582 100.817C373.479 100.817 373.365 101.358 373.372 101.549C373.38 101.674 373.139 101.817 372.904 101.708C372.668 101.598 372.71 101.318 372.844 101.165C372.951 101.042 373.139 100.772 373.198 100.701C373.242 100.645 373.26 100.484 373.151 100.503C373.041 100.521 372.768 100.895 372.609 101.041C372.45 101.187 372.34 100.867 372.258 100.705C372.138 100.357 372.733 100.343 372.91 100.246H372.919ZM372.481 105.392C372.375 104.368 372.992 103.692 373.824 103.692C374.656 103.692 375.273 104.368 375.168 105.392C376.081 105.131 377.288 105.571 376.994 107.144C378.036 106.791 378.839 107.336 378.889 108.191C376.582 110.596 374.409 111.928 373.782 112.296C373.145 111.932 371.013 110.619 368.749 108.271C368.749 107.37 369.58 106.778 370.655 107.144C370.36 105.571 371.57 105.132 372.481 105.392ZM370.763 100.8C370.628 101.768 369.528 102.031 369.019 101.849C369.204 102.764 368.671 103.733 367.326 103.576C367.402 104.26 367.247 105.033 366.256 105.219C364.069 102.069 362.242 97.83 362.16 92.3707C362.168 92.3707 362.176 92.3675 362.184 92.3675H362.437C363.013 92.4309 363.856 92.9169 363.731 94.1044C364.562 94.0514 365.636 94.2351 365.475 95.8287C366.683 95.7772 367.382 96.2222 367.246 97.5846C368.275 97.5054 369.13 97.8973 368.994 99.259C370.119 99.2582 370.898 99.8345 370.764 100.801L370.763 100.8ZM368.146 94.7022C368.123 94.8747 368.078 94.8945 367.896 94.6515C367.714 94.4084 367.871 94.3768 368.073 94.3562C368.263 94.3356 368.166 94.5319 368.146 94.7022ZM369.53 94.3744C369.731 94.3982 369.884 94.4298 369.704 94.6697C369.523 94.9096 369.476 94.8945 369.456 94.7227C369.435 94.5509 369.345 94.357 369.53 94.3744ZM369.165 94.4536C369.221 94.7702 369.444 95.208 369.737 95.3624C369.919 95.4606 370.51 95.4732 370.388 95.8192C370.306 95.9807 370.199 96.2997 370.038 96.1549C369.876 96.01 369.602 95.6403 369.495 95.6181C369.389 95.5959 369.405 95.7654 369.45 95.8137C369.51 95.8873 369.688 96.1541 369.807 96.2887C369.94 96.447 369.981 96.7217 369.746 96.8317C369.512 96.9418 369.271 96.8001 369.275 96.6734C369.285 96.4834 369.168 95.9403 369.066 95.9403C368.987 95.9403 368.983 96.0797 368.987 96.2364C368.952 96.5554 369.165 96.8096 369.139 96.975C369.113 97.1405 369.078 97.3059 368.797 97.302C368.516 97.298 368.482 97.1389 368.455 96.975C368.428 96.8112 368.644 96.5554 368.609 96.2364C368.621 96.0797 368.617 95.9403 368.53 95.9403C368.429 95.9403 368.312 96.4842 368.32 96.6734C368.328 96.7977 368.087 96.9402 367.845 96.8317C367.603 96.7233 367.649 96.4383 367.785 96.2887C367.891 96.162 368.08 95.8952 368.139 95.8137C368.184 95.7662 368.2 95.5975 368.093 95.6181C367.987 95.6387 367.711 96.0108 367.55 96.1549C367.388 96.2989 367.28 95.9807 367.201 95.8192C367.079 95.4724 367.676 95.4614 367.85 95.3624C368.143 95.2088 368.365 94.7631 368.42 94.4536C368.489 94.0554 368.576 93.8994 368.781 93.8836C368.991 93.8796 369.074 94.0562 369.142 94.4536H369.165ZM399.035 97.4595C399.035 98.5853 398.264 99.3437 396.557 99.3437H393.356V92.3612H396.462C397.944 92.3612 398.737 93.0365 398.737 94.1868C398.737 95.0054 398.264 95.5746 397.517 95.7638C398.501 95.9657 399.033 96.6299 399.033 97.4595H399.035ZM395.283 95.2745H396.031C396.529 95.2745 396.838 95.0845 396.838 94.6095C396.838 94.1345 396.521 93.9445 396.031 93.9445H395.283V95.2745ZM395.283 97.7524H396.291C396.776 97.7524 397.049 97.5387 397.049 97.1365C397.049 96.7344 396.776 96.519 396.291 96.519H395.283V97.7524ZM402.823 98.3319C402.668 99.0555 402.111 99.4925 401.175 99.4925C400.179 99.4925 399.481 98.8766 399.481 97.5925V93.8654H401.4V97.1745C401.4 97.7287 401.554 98.0517 401.994 98.0517C402.493 98.0517 402.802 97.6004 402.802 96.7122V93.8654H404.704V99.3421H402.986L402.823 98.3319ZM406.667 97.4595C406.706 97.6587 406.814 97.8375 406.973 97.9636C407.131 98.0897 407.33 98.1547 407.533 98.1467C407.876 98.1467 408.114 98.0279 408.114 97.7904C408.114 97.5529 407.913 97.4469 407.52 97.3629L406.784 97.2086C405.788 96.9948 405.266 96.485 405.266 95.5841C405.266 94.2564 406.405 93.7347 407.625 93.7347C408.941 93.7347 409.735 94.2889 409.924 95.2999L408.183 95.5611C408.123 95.2444 407.934 95.075 407.565 95.075C407.293 95.075 407.103 95.2057 407.103 95.4186C407.103 95.6316 407.256 95.7384 407.541 95.7867L408.276 95.9174C409.485 96.1192 409.994 96.7708 409.994 97.6954C409.994 98.9874 408.868 99.4846 407.516 99.4846C406.272 99.4846 405.442 99.035 405.141 98.062L406.667 97.4595ZM411.503 91.4943C412.073 91.4943 412.558 91.8854 412.558 92.5021C412.558 93.1188 412.072 93.5099 411.503 93.5099C410.934 93.5099 410.448 93.1188 410.448 92.5021C410.448 91.8854 410.934 91.4943 411.503 91.4943ZM412.462 93.8654V99.3421H410.562V93.8654H412.462ZM415.19 94.9214C415.475 94.1029 416.115 93.7355 416.932 93.7355C417.774 93.7355 418.533 94.2343 418.533 95.4907V99.3437H416.633V96.2245C416.633 95.6672 416.475 95.3236 415.981 95.3236C415.567 95.3236 415.211 95.573 415.211 96.4145V99.3421H413.294V93.8654H415.013L415.19 94.9214ZM422.646 97.3645L424.234 97.8633C423.918 99.0365 422.954 99.4862 421.863 99.4862C420.24 99.4862 419.054 98.4554 419.054 96.6647C419.054 94.8154 420.096 93.7355 421.825 93.7355C423.448 93.7355 424.279 94.7789 424.279 96.2966L424.255 96.9853H420.902C420.938 97.6614 421.269 98.0279 421.839 98.0279C422.235 98.0279 422.515 97.8506 422.645 97.3653L422.646 97.3645ZM422.456 96.0124C422.456 95.5374 422.297 95.1225 421.756 95.1225C421.293 95.1225 420.997 95.5025 420.95 96.0124H422.456Z" fill="#838383"/>
<rect x="302" width="88" height="136" fill="url(#paint0_linear_54_663)"/>
</g>
<defs>
<linearGradient id="paint0_linear_54_663" x1="386.822" y1="68" x2="335.29" y2="68.1733" gradientUnits="userSpaceOnUse">
<stop stop-color="#E5DBFB"/>
<stop offset="1" stop-color="#E5DBFB" stop-opacity="0"/>
</linearGradient>
<clipPath id="clip0_54_663">
<rect width="390" height="136" fill="white"/>
</clipPath>
<clipPath id="clip1_54_663">
<rect width="95" height="11.1082" fill="white" transform="translate(24 90.1959)"/>
</clipPath>
<clipPath id="clip2_54_663">
<rect width="95" height="17.5407" fill="white" transform="translate(151 86.9796)"/>
</clipPath>
<clipPath id="clip3_54_663">
<rect width="40" height="20" fill="white" transform="translate(278 85.75)"/>
</clipPath>
</defs>
</svg>
