<svg width="1440" height="155" viewBox="0 0 1440 155" fill="none" xmlns="http://www.w3.org/2000/svg">
<g clip-path="url(#clip0_54_366)">
<rect width="1440" height="155" fill="#E5DBFB"/>
<mask id="mask0_54_366" style="mask-type:alpha" maskUnits="userSpaceOnUse" x="499" y="69" width="150" height="18">
<g clip-path="url(#clip1_54_366)">
<path d="M518.393 86.1852H523.872L526.809 69.375H521.33L520.247 75.395H515.498L516.581 69.375H511.103L508.166 86.1852H513.644L514.748 79.8944H519.497L518.393 86.1852Z" fill="white"/>
<path d="M529.912 69.3541L528.246 78.7069C528.1 79.436 528.038 80.1442 528.038 80.8108C528.038 85.7685 532.37 86.5184 534.974 86.5184C540.432 86.5184 542.786 84.7061 543.64 79.811L545.473 69.3333H539.994L538.432 78.1237C537.932 80.8733 537.578 82.3106 535.537 82.3106C534.203 82.3106 533.558 81.6024 533.558 80.1442C533.558 79.5818 533.641 78.8944 533.808 78.0404L535.391 69.3333H529.912V69.3541Z" fill="white"/>
<path d="M574.427 86.1851H579.905L580.676 81.8524H583.259C588.029 81.8524 590.674 79.2694 590.674 74.5617C590.674 71.2497 588.383 69.3541 584.363 69.3541H577.364L574.427 86.1851ZM582.967 77.7071H581.384L582.113 73.7493H583.592C584.8 73.7493 585.446 74.3534 585.446 75.4574C585.446 76.8531 584.509 77.7071 582.967 77.7071Z" fill="white"/>
<path d="M601.319 69C595.362 69 591.8 72.8536 591.8 79.3319C591.8 83.8313 594.633 86.5392 599.382 86.5392C605.34 86.5392 608.902 82.6856 608.902 76.2073C608.922 71.6871 606.089 69 601.319 69ZM599.715 82.1857C598.299 82.1857 597.466 81.165 597.466 79.4569C597.466 78.8111 597.528 78.2487 597.653 77.603C598.07 75.3949 598.778 73.3744 601.007 73.3744C602.423 73.3744 603.257 74.3951 603.257 76.1032C603.257 76.7489 603.194 77.3113 603.069 77.9571C602.652 80.1443 601.944 82.1857 599.715 82.1857Z" fill="white"/>
<path d="M627.961 86.1852H633.44L635.606 73.8744H639.73L640.522 69.375H626.503L625.711 73.8744H630.086L627.961 86.1852Z" fill="white"/>
<path d="M618.879 75.5824C617.15 75.0408 616.442 74.8117 616.442 73.9993C616.442 73.4577 616.796 72.812 617.838 72.812C618.608 72.812 619.254 73.2494 619.504 73.8952L624.337 72.5828C623.774 70.2082 621.733 69 618.213 69C611.589 69 611.068 73.4369 611.068 74.7909C611.068 77.5405 612.526 79.2277 615.692 80.1026C616.525 80.3318 617.484 80.5817 617.484 81.4983C617.484 82.2273 616.942 82.6856 616.005 82.6856C615.151 82.6856 614.234 82.1857 613.922 81.3108L609.151 82.6023C609.672 85.1019 612.026 86.5184 615.713 86.5184C618.525 86.5184 623.233 85.7685 623.233 80.6859C623.254 78.1446 621.816 76.4781 618.879 75.5824Z" fill="black"/>
<path d="M505.103 86.1852L508.061 69.375H499V86.1852H505.103Z" fill="#0DBE98"/>
<path d="M642.876 69.375L639.938 86.1852H649V69.375H642.876Z" fill="#0DBE98"/>
<path d="M552.013 81.2275H556.617L557.367 76.9989H552.763L553.284 73.8743H559.721L560.512 69.3541H548.597L545.66 86.1851H551.139L552.013 81.2275Z" fill="black"/>
<path d="M566.366 81.2275H570.99L571.74 76.9989H567.136L567.657 73.8743H574.094L574.885 69.3541H562.97L560.033 86.1851H565.512L566.366 81.2275Z" fill="black"/>
</g>
</mask>
<g mask="url(#mask0_54_366)">
<rect x="358.75" y="-20.25" width="833.25" height="336.75" fill="#838383"/>
</g>
<mask id="mask1_54_366" style="mask-type:alpha" maskUnits="userSpaceOnUse" x="739" y="64" width="150" height="28">
<g clip-path="url(#clip2_54_366)">
<path d="M739 64H749.997C752.092 64 753.663 64.5237 754.826 65.3964C756.106 66.4438 756.805 67.9566 756.805 69.8185C756.805 71.9713 755.932 73.3095 754.186 74.1241V74.2405C756.514 74.9969 757.852 77.0915 757.852 79.5935C757.852 81.9791 756.921 83.841 755.408 85.0047C754.128 85.9356 752.499 86.3429 750.288 86.3429H739V64ZM748.891 72.7277C750.055 72.7277 750.928 72.0877 750.928 70.7494C750.928 69.4694 750.055 68.8293 748.833 68.8293H745.051V72.6695H748.891V72.7277ZM749.415 81.3972C750.753 81.3972 751.742 80.5826 751.742 79.128C751.742 77.557 750.695 76.8588 749.415 76.8588H745.109V81.4554H749.415V81.3972Z" fill="black"/>
<path d="M758.841 64H764.601V86.4011H758.841V64Z" fill="black"/>
<path d="M765.765 78.4298C765.765 73.3678 769.023 69.993 774.086 69.993C779.148 69.993 782.348 73.4259 782.348 78.4298C782.348 83.4919 779.148 86.8666 774.086 86.8666C769.023 86.8666 765.765 83.4919 765.765 78.4298ZM776.587 78.4298C776.587 75.637 775.715 73.8914 773.969 73.8914C772.224 73.8914 771.409 75.637 771.409 78.4298C771.409 81.2227 772.224 83.0264 773.969 83.0264C775.715 82.9682 776.587 81.2227 776.587 78.4298Z" fill="black"/>
<path d="M782.988 78.4298C782.988 73.3678 786.246 69.993 791.308 69.993C796.37 69.993 799.512 73.3678 799.512 78.4298C799.512 83.4919 796.312 86.8666 791.25 86.8666C786.246 86.8666 782.988 83.4919 782.988 78.4298ZM793.81 78.4298C793.81 75.637 792.937 73.8914 791.192 73.8914C789.446 73.8914 788.632 75.637 788.632 78.4298C788.632 81.2227 789.446 83.0264 791.192 83.0264C792.937 82.9682 793.81 81.2227 793.81 78.4298Z" fill="black"/>
<path d="M800.676 70.4003H806.029V72.7859H806.145C807.192 70.924 808.647 69.9348 810.974 69.9348C813.011 69.9348 814.524 70.924 815.28 72.6695H815.396C816.677 70.5748 818.364 69.9348 820.342 69.9348C824.066 69.9348 825.637 72.6695 825.637 76.3351V86.3429H820.051V77.3243C820.051 75.6951 819.528 74.6478 818.131 74.6478C816.735 74.6478 816.037 75.9278 816.037 77.6734V86.3429H810.451V77.3243C810.451 75.6951 809.927 74.6478 808.531 74.6478C807.134 74.6478 806.436 75.9278 806.436 77.6734V86.3429H800.676V70.4003Z" fill="black"/>
<path d="M832.677 84.2483H832.619V86.3429H827.266V64H832.852V72.0295H832.968C834.016 70.633 835.47 69.8766 837.507 69.8766C841.521 69.8766 843.849 73.4841 843.849 78.3134C843.849 83.7246 841.347 86.8666 837.158 86.8666C835.412 86.8666 833.608 86.052 832.677 84.2483ZM838.088 78.2552C838.088 75.6951 837.157 74.0078 835.47 74.0078C833.725 74.0078 832.677 75.6951 832.677 78.2552C832.677 80.8154 833.783 82.5027 835.47 82.5027C837.157 82.5027 838.088 80.8735 838.088 78.2552Z" fill="black"/>
<path d="M844.489 78.3716C844.489 73.3677 847.805 69.9348 852.576 69.9348C854.962 69.9348 856.766 70.6912 858.162 72.0295C860.024 73.8332 860.839 76.626 860.78 79.8844H850.074C850.307 81.8627 851.238 82.91 852.926 82.91C853.915 82.91 854.787 82.4445 855.137 81.3972H860.548C859.617 85.0628 856.766 86.8665 852.751 86.8665C847.805 86.8084 844.489 83.4337 844.489 78.3716ZM850.074 76.6842H855.195C855.078 74.7641 854.031 73.775 852.693 73.775C851.122 73.7168 850.249 74.8223 850.074 76.6842Z" fill="black"/>
<path d="M867.123 73.1349H867.239C868.403 70.9239 869.915 70.0511 871.835 70.0511C872.301 70.0511 872.592 70.1093 872.766 70.2257V75.1132H872.65C869.334 74.5314 867.413 76.1024 867.413 79.7098V86.401H861.77V70.4003H867.123V73.1349Z" fill="black"/>
<path d="M873.349 86.4011H878.76C878.992 87.0994 879.691 87.7394 881.029 87.7394C882.833 87.7394 883.473 86.6339 883.473 84.9465V83.7828H883.356C882.484 84.8302 881.262 85.5866 879.516 85.5866C876.083 85.5866 873.058 83.0264 873.058 78.0226C873.058 73.426 875.501 69.8767 879.225 69.8767C881.378 69.8767 882.658 70.7495 883.531 72.0877H883.647V70.3422H889V84.1901C889 86.7503 888.127 88.7285 886.789 89.8922C885.393 91.1141 883.414 91.6378 881.145 91.6378C876.84 91.6959 873.872 89.9504 873.349 86.4011ZM883.705 77.7898C883.705 75.8115 882.774 74.1824 881.145 74.1824C879.574 74.1824 878.585 75.5788 878.585 77.7898C878.585 79.9427 879.574 81.4555 881.145 81.4555C882.716 81.4555 883.705 79.8845 883.705 77.7898Z" fill="black"/>
</g>
</mask>
<g mask="url(#mask1_54_366)">
<rect x="709.75" y="4.75" width="208.5" height="144.75" fill="#838383"/>
</g>
<mask id="mask2_54_366" style="mask-type:alpha" maskUnits="userSpaceOnUse" x="979" y="60" width="70" height="35">
<g clip-path="url(#clip3_54_366)">
<path d="M1014 60V71.6667H1002.33V95H990.667V71.6667H979V60H1014Z" fill="#0A9E01"/>
<path d="M1049 60H1025.67V71.6667H1049V60Z" fill="#0A9E01"/>
<path d="M1049 83.3333V95H1014V71.6666H1025.67V83.3333H1049Z" fill="#0A9E01"/>
</g>
</mask>
<g mask="url(#mask2_54_366)">
<rect x="892.375" y="-24.875" width="243.25" height="168.875" fill="#838383"/>
</g>
<path d="M1156.96 55.9938V69.6538L1196.21 69.6525V55.9938H1156.96ZM1190.8 59.675L1191.17 59.6825C1191.24 59.685 1191.3 59.7488 1191.3 59.8075V65.8988L1190.8 65.4688C1190.82 65.4313 1190.84 65.3938 1190.84 65.3438V59.7725C1190.83 59.74 1190.82 59.715 1190.81 59.6913L1190.8 59.675ZM1191.15 66H1188.05C1188.04 65.9167 1188 65.8374 1187.96 65.7675C1187.91 65.6976 1187.85 65.6388 1187.77 65.595H1190.56C1190.59 65.5966 1190.62 65.5906 1190.65 65.5775L1191.15 66ZM1184.46 59.7675C1184.54 59.7143 1184.63 59.6808 1184.72 59.67C1184.74 59.67 1184.78 59.665 1184.81 59.665H1184.84C1185.4 59.665 1186.07 59.7063 1186.59 59.9C1187.11 60.0938 1187.46 60.4163 1187.46 61.025H1187.64C1187.65 60.4275 1188 60.1125 1188.52 59.9C1189.02 59.705 1189.7 59.665 1190.26 59.665H1190.32C1190.35 59.665 1190.37 59.67 1190.4 59.67C1190.45 59.6786 1190.51 59.6933 1190.56 59.7138C1190.59 59.7313 1190.62 59.7475 1190.63 59.7575L1190.64 65.3288C1190.64 65.375 1190.6 65.41 1190.56 65.41H1184.54C1184.5 65.41 1184.46 65.3725 1184.46 65.3288V59.7663V59.7675ZM1184.54 65.5963H1187.17C1187.02 65.6838 1186.92 65.8463 1186.89 66.0013H1183.92C1183.91 66.0013 1183.9 65.9988 1183.89 65.9988L1184.41 65.5613C1184.45 65.5838 1184.49 65.5988 1184.54 65.5988V65.5963ZM1183.8 59.7963C1183.8 59.75 1183.86 59.6875 1183.93 59.6713L1184.3 59.6638C1184.29 59.689 1184.28 59.7172 1184.28 59.7463V65.3175C1184.28 65.3475 1184.28 65.3775 1184.29 65.4025L1183.79 65.8188V59.7813L1183.8 59.7963ZM1180.28 59.6938C1180.34 59.6938 1180.41 59.765 1180.41 59.8188V65.8688L1179.91 65.4513C1179.92 65.4207 1179.93 65.3875 1179.93 65.3538V59.7788C1179.92 59.7463 1179.92 59.7263 1179.91 59.7038L1180.27 59.705L1180.28 59.6938ZM1180.3 66.0138H1177.16C1177.14 65.931 1177.12 65.8515 1177.07 65.7808C1177.03 65.7101 1176.97 65.6498 1176.9 65.6038H1179.67C1179.71 65.6038 1179.74 65.5938 1179.79 65.5788L1180.3 66.0138ZM1176.75 60.8363C1176.75 60.3138 1177.02 60.0363 1177.43 59.87C1177.83 59.7038 1178.35 59.665 1178.79 59.665L1179.49 59.6775C1179.55 59.6848 1179.61 59.7017 1179.66 59.7275C1179.69 59.74 1179.72 59.76 1179.74 59.7725L1179.74 59.7775V65.345C1179.74 65.3863 1179.71 65.4163 1179.67 65.4163H1176.75L1176.75 60.8363ZM1173.57 59.7763C1173.58 59.7675 1173.63 59.735 1173.68 59.7138C1173.73 59.6966 1173.78 59.6861 1173.83 59.6825L1174.54 59.6638C1174.97 59.6638 1175.5 59.7013 1175.9 59.8688C1176.29 60.0438 1176.56 60.3138 1176.56 60.835V65.4138H1173.65C1173.6 65.4138 1173.57 65.3838 1173.57 65.3425V59.775L1173.57 59.7763ZM1173.65 65.6013H1176.26C1176.19 65.647 1176.13 65.7073 1176.08 65.778C1176.04 65.8487 1176.01 65.9282 1176 66.0113H1173.03C1173.02 66.0113 1173 66.0113 1172.99 66.005L1173.51 65.565C1173.55 65.59 1173.6 65.6013 1173.65 65.6013ZM1172.91 59.805C1172.91 59.765 1172.96 59.68 1173.04 59.68L1173.41 59.6788C1173.39 59.7013 1173.39 59.7225 1173.38 59.7538V65.3288C1173.38 65.3559 1173.39 65.3826 1173.4 65.4075L1172.91 65.8238L1172.91 59.805ZM1169.01 59.68L1169.38 59.6813C1169.45 59.6813 1169.51 59.7525 1169.51 59.8063V65.8713L1169.01 65.4463C1169.02 65.4138 1169.03 65.3788 1169.03 65.3413V59.7663C1169.03 59.735 1169.02 59.7138 1169.01 59.6913L1169.01 59.68ZM1169.39 66.0013H1166.26C1166.25 65.9189 1166.22 65.8399 1166.17 65.7693C1166.13 65.6987 1166.07 65.6381 1166 65.5913H1168.77C1168.81 65.5913 1168.85 65.585 1168.88 65.5713L1169.39 66.0013ZM1165.85 60.8238C1165.86 60.3013 1166.13 60.0238 1166.53 59.8575C1166.93 59.6913 1167.46 59.6525 1167.9 59.6525L1168.6 59.665C1168.61 59.665 1168.7 59.6825 1168.76 59.715C1168.79 59.7267 1168.82 59.7419 1168.84 59.76L1168.85 59.765V65.3325C1168.85 65.3738 1168.81 65.4038 1168.77 65.4038H1165.85L1165.85 60.8238ZM1162.67 59.7638C1162.69 59.755 1162.73 59.7225 1162.8 59.7013C1162.84 59.685 1162.9 59.6745 1162.95 59.67L1163.66 59.6513C1164.09 59.6513 1164.61 59.6888 1165.01 59.8563C1165.41 60.0313 1165.67 60.3013 1165.68 60.8225L1165.68 65.4013H1162.75C1162.71 65.4013 1162.67 65.3713 1162.67 65.33L1162.67 59.7638ZM1162.75 65.6H1165.37C1165.23 65.6938 1165.14 65.84 1165.11 66.01H1162.12C1162.1 66.01 1162.08 66.01 1162.07 66.0013L1162.59 65.5563C1162.63 65.5838 1162.69 65.6 1162.74 65.6H1162.75ZM1162 59.8038C1162 59.7638 1162.06 59.6788 1162.13 59.6788L1162.49 59.6775C1162.48 59.7 1162.48 59.7175 1162.47 59.7525V65.3275C1162.47 65.3488 1162.48 65.3688 1162.48 65.395L1162 65.805V59.8038ZM1161.34 66.4588C1161.25 66.4588 1161.17 66.3775 1161.17 66.2838V65.3713C1160.92 65.3388 1160.72 65.1788 1160.72 64.99C1160.72 64.8013 1160.92 64.64 1161.17 64.6063V61.6625C1160.92 61.625 1160.72 61.47 1160.72 61.2813C1160.72 61.0925 1160.92 60.9363 1161.17 60.8988V59.7313C1161.17 59.6363 1161.25 59.5625 1161.34 59.5625L1161.85 59.6625C1161.83 59.7 1161.81 59.75 1161.81 59.8025V65.91C1161.81 66.0788 1161.96 66.1975 1162.12 66.1975H1165.09C1165.1 66.295 1165.15 66.3825 1165.2 66.4575L1161.34 66.4588ZM1165.84 66.4588H1165.49C1165.43 66.4249 1165.37 66.3726 1165.33 66.3077C1165.29 66.2428 1165.27 66.1678 1165.26 66.0913C1165.26 65.9849 1165.31 65.8828 1165.38 65.8075C1165.46 65.7323 1165.56 65.69 1165.67 65.69C1165.77 65.69 1165.87 65.7323 1165.95 65.8075C1166.03 65.8828 1166.07 65.9849 1166.07 66.0913C1166.07 66.2538 1165.97 66.3913 1165.84 66.4588H1165.84ZM1170.57 64.9913C1170.57 65.1788 1170.37 65.3338 1170.12 65.3725V66.285C1170.12 66.3763 1170.04 66.46 1169.95 66.46H1166.12C1166.18 66.3826 1166.22 66.2934 1166.24 66.1988H1169.37C1169.53 66.1988 1169.68 66.08 1169.68 65.9113V59.8038C1169.68 59.7338 1169.65 59.6738 1169.61 59.6263L1169.95 59.5638C1170.04 59.5638 1170.12 59.6388 1170.12 59.7325V60.9013C1170.37 60.9388 1170.57 61.0913 1170.57 61.2825C1170.57 61.4738 1170.37 61.6263 1170.12 61.6638V64.6075C1170.37 64.645 1170.57 64.805 1170.57 64.9913ZM1172.23 66.4588C1172.14 66.4588 1172.07 66.3775 1172.07 66.2838V65.3713C1171.82 65.3388 1171.61 65.1788 1171.61 64.99C1171.61 64.8013 1171.8 64.64 1172.07 64.6063V61.6625C1171.82 61.625 1171.61 61.47 1171.61 61.2813C1171.61 61.0925 1171.8 60.9363 1172.07 60.8988V59.7313C1172.07 59.6363 1172.14 59.5625 1172.23 59.5625L1172.73 59.6625C1172.71 59.7025 1172.7 59.75 1172.7 59.8025V65.91C1172.7 66.0788 1172.84 66.1975 1173 66.1975H1175.97C1175.99 66.292 1176.03 66.3811 1176.09 66.4575L1172.23 66.4588ZM1176.73 66.4588H1176.38C1176.25 66.3913 1176.16 66.255 1176.16 66.0913C1176.16 65.8738 1176.34 65.6938 1176.56 65.6938C1176.67 65.6934 1176.77 65.7351 1176.84 65.8096C1176.92 65.8841 1176.96 65.9854 1176.96 66.0913C1176.96 66.2538 1176.86 66.3913 1176.73 66.4588ZM1181.46 64.9913C1181.46 65.1788 1181.27 65.3338 1181.01 65.3725V66.285C1181.01 66.3308 1180.99 66.3746 1180.96 66.4071C1180.93 66.4396 1180.89 66.4581 1180.84 66.4588H1177.02C1177.08 66.3813 1177.12 66.2921 1177.14 66.1975H1180.26C1180.43 66.1975 1180.57 66.0788 1180.57 65.91V59.8025C1180.57 59.7325 1180.55 59.6725 1180.51 59.625L1180.84 59.5625C1180.94 59.5625 1181.01 59.6375 1181.01 59.7313V60.9C1181.27 60.9375 1181.46 61.09 1181.46 61.2813C1181.46 61.4725 1181.27 61.625 1181.01 61.6625V64.6063C1181.27 64.6438 1181.46 64.8038 1181.46 64.99L1181.46 64.9913ZM1183.13 66.4588C1183.04 66.4588 1182.96 66.3775 1182.96 66.2838V65.3713C1182.71 65.3388 1182.51 65.1788 1182.51 64.99C1182.51 64.8013 1182.7 64.64 1182.96 64.6063V61.6625C1182.71 61.625 1182.51 61.47 1182.51 61.2813C1182.51 61.0925 1182.7 60.9363 1182.96 60.8988V59.7313C1182.96 59.6363 1183.04 59.5625 1183.13 59.5625L1183.63 59.6625C1183.61 59.7028 1183.6 59.7472 1183.6 59.7925V65.9C1183.6 66.065 1183.74 66.1825 1183.91 66.1825H1186.87C1186.89 66.285 1186.94 66.375 1187 66.4575L1183.13 66.4588ZM1187.63 66.4588H1187.28C1187.16 66.3913 1187.05 66.255 1187.05 66.0913C1187.05 65.9861 1187.1 65.8853 1187.17 65.8109C1187.25 65.7365 1187.35 65.6944 1187.45 65.6938C1187.68 65.6938 1187.86 65.8738 1187.86 66.0913C1187.86 66.2538 1187.76 66.3913 1187.63 66.4588ZM1192.36 64.9913C1192.36 65.1788 1192.16 65.3413 1191.9 65.3725V66.285C1191.9 66.3763 1191.83 66.46 1191.73 66.46H1187.91C1187.97 66.3797 1188.02 66.2852 1188.03 66.185H1191.15C1191.32 66.185 1191.47 66.0675 1191.47 65.8975V59.7938C1191.47 59.7288 1191.44 59.6738 1191.41 59.6263L1191.73 59.5638C1191.83 59.5638 1191.9 59.6388 1191.9 59.7325V60.9C1192.15 60.9375 1192.36 61.09 1192.36 61.2825C1192.36 61.475 1192.16 61.6263 1191.9 61.6638V64.6075C1192.15 64.645 1192.36 64.805 1192.36 64.9913ZM1167.36 63.9413C1167.17 63.9413 1167.12 63.8938 1167.12 63.7163V62.7388C1167.41 62.7388 1167.56 62.8575 1167.6 63.3638H1167.67V62H1167.6C1167.55 62.5 1167.4 62.6075 1167.12 62.6025V61.665C1167.12 61.49 1167.17 61.4775 1167.33 61.4775C1167.73 61.4775 1167.94 61.5775 1168 62.1525H1168.07V61.3375H1166.38V61.4413C1166.5 61.4538 1166.63 61.46 1166.63 61.7288V63.6875C1166.63 63.93 1166.54 63.9463 1166.38 63.9688V64.0713H1168.1L1168.22 63.2275H1168.13C1167.95 63.8525 1167.65 63.945 1167.36 63.945L1167.36 63.9413ZM1188.97 63.8588C1189.07 63.8588 1189.2 63.9838 1189.48 63.9838C1190.02 63.9838 1190.21 63.4938 1190.21 63.1338C1190.21 62.6963 1189.98 62.4613 1189.88 62.3838L1189.45 62.09C1189.2 61.9213 1189.15 61.8325 1189.15 61.615C1189.15 61.365 1189.31 61.2313 1189.46 61.2313C1189.81 61.2313 1189.99 61.6938 1190.04 61.975H1190.12V61.1H1190.04C1190.02 61.1813 1190.01 61.2413 1189.94 61.2413C1189.86 61.2413 1189.72 61.1063 1189.48 61.1063C1188.92 61.1063 1188.83 61.6563 1188.83 61.9063C1188.83 62.0938 1188.83 62.4388 1189.34 62.7813L1189.53 62.9063C1189.72 63.0288 1189.86 63.1275 1189.86 63.4063C1189.86 63.465 1189.85 63.865 1189.48 63.865C1189.11 63.865 1188.94 63.4025 1188.88 62.9975H1188.79V63.9975H1188.88C1188.89 63.9313 1188.9 63.8725 1188.96 63.8725L1188.97 63.8588ZM1163.3 61.665L1164.05 64.0863H1164.13L1164.8 61.7163C1164.87 61.4913 1164.9 61.41 1165.06 61.385V61.2825H1164.44V61.385C1164.61 61.3975 1164.69 61.41 1164.69 61.5675C1164.69 61.65 1164.66 61.755 1164.63 61.8488L1164.26 63.1738L1163.88 61.8988C1163.85 61.7988 1163.79 61.6263 1163.79 61.5488C1163.79 61.3988 1163.86 61.3988 1164.04 61.3825V61.28H1163.04V61.3825C1163.17 61.4075 1163.21 61.42 1163.29 61.6625L1163.3 61.665ZM1175.02 63.89C1174.83 63.8525 1174.76 63.84 1174.76 63.52V62.7275H1174.84L1175.45 63.995H1176.05V63.89C1176.02 63.89 1175.97 63.8888 1175.93 63.815L1175.34 62.665C1175.5 62.5925 1175.8 62.47 1175.8 61.97C1175.8 61.2913 1175.18 61.26 1174.98 61.26H1174.03V61.3675C1174.2 61.38 1174.29 61.3875 1174.29 61.7325V63.52C1174.29 63.845 1174.23 63.8575 1174.03 63.89V63.995H1175.02V63.89ZM1174.76 61.57C1174.78 61.4413 1174.78 61.3988 1174.95 61.3988C1175.18 61.3988 1175.3 61.5738 1175.3 61.9813C1175.3 62.5025 1175.15 62.6063 1174.77 62.5963L1174.76 61.57ZM1185.31 61.3925V63.5175C1185.31 63.855 1185.24 63.8675 1185.03 63.8875V63.9925H1186.08V63.875C1185.86 63.855 1185.79 63.8463 1185.79 63.505V61.38C1185.99 61.3888 1186.29 61.4175 1186.35 62.0638H1186.44L1186.43 61.2388H1184.67L1184.66 62.0538H1184.75C1184.8 61.4038 1185.1 61.3788 1185.31 61.37V61.3925ZM1187.1 63.8863C1187 63.8775 1186.86 63.8663 1186.86 63.7138C1186.86 63.645 1186.91 63.4788 1186.99 63.185H1187.65C1187.69 63.315 1187.78 63.6163 1187.78 63.7263C1187.78 63.86 1187.73 63.8663 1187.55 63.8863V63.9813H1188.5V63.875C1188.36 63.8838 1188.31 63.7425 1188.18 63.3125L1187.53 61.1875H1187.44L1186.79 63.4C1186.7 63.705 1186.66 63.8438 1186.5 63.875V63.97H1187.1L1187.1 63.8863ZM1187.31 62.0525L1187.6 63.0313H1187.03L1187.31 62.0525ZM1177.68 61.3675C1177.81 61.3763 1177.95 61.385 1177.95 61.6475V63.6013C1177.95 63.8513 1177.84 63.8688 1177.68 63.8888V63.9938H1178.71V63.8888C1178.55 63.8763 1178.43 63.86 1178.43 63.6013V61.6513C1178.43 61.3813 1178.57 61.3763 1178.71 61.3713V61.25H1177.68V61.3675ZM1183.66 70.9175C1183.91 71.2999 1184.08 71.7297 1184.15 72.18C1184.37 73.4513 1183.75 74.795 1181.42 74.93C1181.39 76.835 1180.92 77.6138 1178.5 77.655C1178.71 79.6825 1177.65 80.3425 1176.51 80.3425C1175.37 80.3425 1174.3 79.6838 1174.51 77.655C1172.1 77.6113 1171.63 76.8325 1171.59 74.93C1169.26 74.8088 1168.65 73.465 1168.86 72.18C1168.93 71.7275 1169.11 71.2888 1169.35 70.93H1156.95V71.56C1156.97 94.875 1176.23 104.9 1176.29 104.931L1176.58 105.088L1176.88 104.931C1176.94 104.9 1196.2 94.8625 1196.22 71.56V70.93L1183.66 70.9175ZM1167.57 92.3C1168.04 92.0575 1168.39 91.3463 1168.47 90.8625C1168.6 90.2375 1168.72 89.9875 1169.05 89.965C1169.38 89.9425 1169.51 90.2375 1169.62 90.8625C1169.71 91.3463 1170.06 92.0563 1170.52 92.3C1170.81 92.4525 1171.74 92.475 1171.55 93.02C1171.42 93.2675 1171.25 93.775 1171 93.55C1170.75 93.325 1170.31 92.7375 1170.13 92.7C1169.96 92.6713 1169.98 92.925 1170.05 93.0125C1170.15 93.1225 1170.44 93.55 1170.61 93.7463C1170.82 93.9863 1170.89 94.4275 1170.52 94.6013C1170.15 94.775 1169.77 94.5538 1169.78 94.355C1169.79 94.055 1169.61 93.1988 1169.45 93.1988C1169.32 93.1988 1169.31 93.4238 1169.33 93.6638C1169.28 94.1688 1169.62 94.5725 1169.58 94.8325C1169.53 95.085 1169.48 95.3538 1169.04 95.3488C1168.59 95.3363 1168.54 95.0988 1168.49 94.8325C1168.45 94.5825 1168.79 94.1675 1168.74 93.6638C1168.75 93.4225 1168.75 93.1988 1168.62 93.1988C1168.46 93.1988 1168.27 94.0563 1168.29 94.355C1168.3 94.555 1167.92 94.7763 1167.55 94.6013C1167.18 94.4263 1167.24 93.985 1167.45 93.7463C1167.62 93.5488 1167.92 93.1238 1168.02 93.0125C1168.08 92.925 1168.11 92.6713 1167.94 92.7C1167.77 92.7375 1167.34 93.3225 1167.08 93.55C1166.83 93.7775 1166.66 93.2675 1166.53 93.02C1166.35 92.4763 1167.27 92.4525 1167.56 92.3H1167.57ZM1167.89 90.7C1168.19 90.6663 1168.04 90.975 1168.01 91.25C1167.98 91.525 1167.9 91.55 1167.62 91.165C1167.33 90.78 1167.57 90.7363 1167.89 90.7025V90.7ZM1170.19 90.7275C1170.51 90.77 1170.75 90.815 1170.47 91.19C1170.18 91.575 1170.11 91.545 1170.07 91.2775C1170.04 91.01 1169.89 90.6975 1170.19 90.725V90.7275ZM1183.89 93.1988C1183.73 93.1988 1183.55 94.0563 1183.57 94.355C1183.57 94.555 1183.2 94.7763 1182.82 94.6013C1182.45 94.4263 1182.52 93.985 1182.73 93.7463C1182.9 93.5488 1183.2 93.1238 1183.29 93.0125C1183.36 92.925 1183.39 92.6713 1183.22 92.7C1183.05 92.7375 1182.61 93.3225 1182.34 93.55C1182.07 93.7775 1181.92 93.2675 1181.79 93.02C1181.6 92.4775 1182.53 92.4525 1182.82 92.3C1183.28 92.0575 1183.63 91.3463 1183.72 90.8625C1183.83 90.2375 1183.97 89.9875 1184.29 89.965C1184.62 89.9425 1184.75 90.2375 1184.87 90.8625C1184.95 91.3463 1185.3 92.0563 1185.77 92.3C1186.05 92.4525 1186.98 92.475 1186.8 93.02C1186.66 93.2675 1186.5 93.775 1186.24 93.55C1185.99 93.325 1185.55 92.7375 1185.38 92.7C1185.22 92.6713 1185.24 92.925 1185.31 93.0125C1185.41 93.1225 1185.71 93.55 1185.88 93.7463C1186.09 93.9863 1186.15 94.4275 1185.78 94.6013C1185.4 94.775 1185.03 94.5538 1185.04 94.355C1185.05 94.055 1184.87 93.1988 1184.71 93.1988C1184.58 93.1988 1184.58 93.4238 1184.59 93.6638C1184.53 94.1688 1184.88 94.5725 1184.83 94.8325C1184.79 95.085 1184.73 95.3538 1184.29 95.3488C1183.85 95.3363 1183.79 95.0988 1183.75 94.8325C1183.71 94.5825 1184.05 94.1675 1183.99 93.6638C1184.01 93.4225 1184.01 93.1988 1183.87 93.1988H1183.89ZM1183.15 90.6988C1183.45 90.665 1183.3 90.9738 1183.27 91.2488C1183.24 91.5238 1183.16 91.5488 1182.88 91.1638C1182.59 90.7788 1182.83 90.735 1183.15 90.7013L1183.15 90.6988ZM1185.45 90.7263C1185.77 90.7688 1186.01 90.8138 1185.73 91.1888C1185.44 91.5738 1185.37 91.5438 1185.33 91.2763C1185.3 91.0088 1185.15 90.6963 1185.45 90.7238L1185.45 90.7263ZM1185.73 75.8213C1185.44 76.2038 1185.37 76.1763 1185.33 75.905C1185.3 75.6338 1185.15 75.3263 1185.45 75.355C1185.77 75.39 1186.01 75.4425 1185.73 75.8213ZM1183.15 75.3263C1183.45 75.2938 1183.29 75.605 1183.27 75.8725C1183.24 76.14 1183.16 76.1763 1182.88 75.7925C1182.59 75.4088 1182.83 75.3588 1183.15 75.3263H1183.15ZM1182.83 76.9263C1183.29 76.6838 1183.65 75.98 1183.73 75.4913C1183.84 74.8625 1183.98 74.6163 1184.31 74.5913C1184.63 74.585 1184.76 74.8638 1184.88 75.4913C1184.96 75.9913 1185.32 76.6825 1185.78 76.9263C1186.07 77.0813 1187 77.1013 1186.81 77.6475C1186.68 77.9025 1186.51 78.4025 1186.26 78.1775C1186 77.9525 1185.57 77.365 1185.4 77.33C1185.23 77.295 1185.25 77.5625 1185.32 77.6388C1185.42 77.755 1185.72 78.1763 1185.89 78.3713C1186.1 78.6125 1186.16 79.0588 1185.79 79.2463C1185.41 79.4338 1185.04 79.1963 1185.05 78.9963C1185.06 78.6963 1184.88 77.8388 1184.72 77.8388C1184.59 77.8388 1184.6 78.0588 1184.6 78.3063C1184.55 78.81 1184.89 79.2113 1184.84 79.4725C1184.8 79.7338 1184.75 79.995 1184.31 79.9888C1183.86 79.9788 1183.81 79.7313 1183.76 79.4725C1183.72 79.2138 1184.06 78.81 1184.01 78.3063C1184.03 78.0588 1184.02 77.8388 1183.89 77.8388C1183.73 77.8388 1183.55 78.6975 1183.56 78.9963C1183.57 79.1925 1183.19 79.4175 1182.82 79.2463C1182.45 79.075 1182.52 78.625 1182.73 78.3888C1182.9 78.1888 1183.19 77.7675 1183.29 77.6388C1183.36 77.5638 1183.38 77.2975 1183.21 77.33C1183.04 77.3625 1182.61 77.95 1182.34 78.1775C1182.07 78.405 1181.92 77.9025 1181.79 77.6475C1181.6 77.1 1182.53 77.0825 1182.81 76.9263H1182.83ZM1184.31 83.0513C1184.09 80.9013 1185.45 80.2838 1187.06 80.4075C1186.85 78.2575 1187.93 77.5538 1189.86 77.635C1189.6 75.1188 1191.3 74.8288 1192.61 74.9125C1192.41 73.0375 1193.74 72.265 1194.65 72.17H1194.94C1194.81 80.795 1191.93 87.4575 1188.48 92.4275C1187.05 92.0725 1186.82 90.9125 1186.93 89.87C1184.81 90.12 1183.97 88.5888 1184.26 87.1425C1183.45 87.43 1181.72 87.0175 1181.51 85.4875C1181.3 83.9575 1182.52 83.0513 1184.31 83.0513ZM1177.81 83.0338C1178.13 83.0663 1178.37 83.115 1178.08 83.4938C1177.8 83.8725 1177.72 83.8475 1177.69 83.5775C1177.66 83.3075 1177.51 83 1177.82 83.0338H1177.81ZM1175.51 83C1175.8 82.9663 1175.65 83.28 1175.63 83.545C1175.61 83.81 1175.53 83.8475 1175.26 83.4663C1174.98 83.085 1175.21 83.035 1175.53 83H1175.51ZM1175.19 84.6C1175.65 84.3575 1176 83.65 1176.08 83.1625C1176.19 82.54 1176.33 82.2875 1176.66 82.265C1176.99 82.2425 1177.12 82.54 1177.23 83.1625C1177.31 83.6625 1177.67 84.3563 1178.13 84.6C1178.42 84.7525 1179.35 84.775 1179.16 85.325C1179.03 85.5788 1178.86 86.0813 1178.61 85.855C1178.35 85.6288 1177.92 85.04 1177.75 85.005C1177.58 84.975 1177.6 85.23 1177.68 85.3175C1177.77 85.4425 1178.07 85.855 1178.24 86.0513C1178.45 86.2925 1178.51 86.7313 1178.14 86.9075C1177.77 87.0838 1177.39 86.8575 1177.4 86.6575C1177.42 86.355 1177.23 85.5013 1177.07 85.5013C1176.94 85.5013 1176.94 85.7188 1176.94 85.96C1176.89 86.46 1177.23 86.875 1177.19 87.135C1177.15 87.395 1177.09 87.6563 1176.65 87.65C1176.21 87.6438 1176.15 87.4 1176.11 87.135C1176.06 86.8763 1176.4 86.4725 1176.35 85.96C1176.37 85.72 1176.36 85.5013 1176.23 85.5013C1176.07 85.5013 1175.89 86.355 1175.9 86.6575C1175.92 86.855 1175.53 87.08 1175.16 86.9075C1174.79 86.735 1174.86 86.2925 1175.07 86.0513C1175.24 85.8563 1175.53 85.43 1175.63 85.3175C1175.7 85.23 1175.73 84.9763 1175.55 85.005C1175.38 85.0338 1174.95 85.625 1174.7 85.855C1174.45 86.085 1174.27 85.58 1174.14 85.325C1173.95 84.775 1174.89 84.7525 1175.17 84.6H1175.19ZM1174.5 92.725C1174.33 91.1075 1175.3 90.04 1176.62 90.04C1177.93 90.04 1178.9 91.1075 1178.74 92.725C1180.18 92.3125 1182.09 93.0075 1181.62 95.4913C1183.27 94.9338 1184.53 95.795 1184.61 97.145C1180.97 100.941 1177.54 103.045 1176.55 103.626C1175.54 103.051 1172.18 100.979 1168.6 97.27C1168.6 95.8475 1169.92 94.9138 1171.61 95.4913C1171.15 93.0075 1173.06 92.3138 1174.5 92.725ZM1171.78 85.475C1171.57 87.0025 1169.83 87.4175 1169.03 87.13C1169.32 88.5763 1168.48 90.105 1166.36 89.8575C1166.48 90.9375 1166.23 92.1575 1164.67 92.4525C1161.21 87.4775 1158.33 80.785 1158.2 72.165C1158.21 72.165 1158.22 72.16 1158.24 72.16H1158.64C1159.55 72.26 1160.88 73.0275 1160.68 74.9025C1161.99 74.8188 1163.69 75.1088 1163.43 77.625C1165.34 77.5438 1166.44 78.2463 1166.23 80.3975C1167.85 80.2725 1169.2 80.8913 1168.99 83.0413C1170.77 83.04 1172 83.95 1171.78 85.4763L1171.78 85.475ZM1167.65 75.8463C1167.61 76.1188 1167.54 76.15 1167.26 75.7663C1166.97 75.3825 1167.22 75.3325 1167.54 75.3C1167.84 75.2675 1167.68 75.5775 1167.65 75.8463ZM1169.84 75.3288C1170.15 75.3663 1170.4 75.4163 1170.11 75.795C1169.83 76.1738 1169.75 76.15 1169.72 75.8788C1169.69 75.6075 1169.54 75.3013 1169.84 75.3288ZM1169.26 75.4538C1169.35 75.9538 1169.7 76.645 1170.16 76.8888C1170.45 77.0438 1171.38 77.0638 1171.19 77.61C1171.06 77.865 1170.89 78.3688 1170.64 78.14C1170.38 77.9113 1169.95 77.3275 1169.78 77.2925C1169.61 77.2575 1169.64 77.525 1169.71 77.6013C1169.8 77.7175 1170.09 78.1388 1170.27 78.3513C1170.48 78.6013 1170.55 79.035 1170.18 79.2088C1169.81 79.3825 1169.43 79.1588 1169.43 78.9588C1169.45 78.6588 1169.26 77.8013 1169.1 77.8013C1168.98 77.8013 1168.97 78.0213 1168.98 78.2688C1168.92 78.7725 1169.26 79.1738 1169.22 79.435C1169.18 79.6963 1169.12 79.9575 1168.68 79.9513C1168.24 79.945 1168.18 79.6938 1168.14 79.435C1168.1 79.1763 1168.44 78.7725 1168.38 78.2688C1168.4 78.0213 1168.39 77.8013 1168.26 77.8013C1168.1 77.8013 1167.91 78.66 1167.93 78.9588C1167.94 79.155 1167.56 79.38 1167.18 79.2088C1166.79 79.0375 1166.87 78.5875 1167.08 78.3513C1167.25 78.1513 1167.55 77.73 1167.64 77.6013C1167.71 77.5263 1167.74 77.26 1167.57 77.2925C1167.4 77.325 1166.96 77.9125 1166.71 78.14C1166.45 78.3675 1166.28 77.865 1166.16 77.61C1165.97 77.0625 1166.91 77.045 1167.18 76.8888C1167.65 76.6463 1168 75.9425 1168.08 75.4538C1168.19 74.825 1168.33 74.5788 1168.65 74.5538C1168.99 74.5475 1169.12 74.8263 1169.22 75.4538H1169.26ZM1216.42 80.2C1216.42 81.9775 1215.21 83.175 1212.51 83.175H1207.46V72.15H1212.36C1214.7 72.15 1215.95 73.2163 1215.95 75.0325C1215.95 76.325 1215.21 77.2238 1214.03 77.5225C1215.58 77.8413 1216.42 78.89 1216.42 80.2H1216.42ZM1210.5 76.75H1211.68C1212.47 76.75 1212.95 76.45 1212.95 75.7C1212.95 74.95 1212.45 74.65 1211.68 74.65H1210.5V76.75ZM1210.5 80.6625H1212.09C1212.86 80.6625 1213.29 80.325 1213.29 79.69C1213.29 79.055 1212.86 78.715 1212.09 78.715H1210.5V80.6625ZM1222.4 81.5775C1222.16 82.72 1221.28 83.41 1219.8 83.41C1218.23 83.41 1217.13 82.4375 1217.13 80.41V74.525H1220.16V79.75C1220.16 80.625 1220.4 81.135 1221.1 81.135C1221.88 81.135 1222.37 80.4225 1222.37 79.02V74.525H1225.37V83.1725H1222.66L1222.4 81.5775ZM1228.47 80.2C1228.54 80.5145 1228.71 80.7969 1228.96 80.996C1229.21 81.195 1229.52 81.2976 1229.84 81.285C1230.38 81.285 1230.76 81.0975 1230.76 80.7225C1230.76 80.3475 1230.44 80.18 1229.82 80.0475L1228.66 79.8038C1227.09 79.4663 1226.26 78.6613 1226.26 77.2388C1226.26 75.1425 1228.06 74.3188 1229.99 74.3188C1232.06 74.3188 1233.32 75.1938 1233.62 76.79L1230.87 77.2025C1230.77 76.7025 1230.47 76.435 1229.89 76.435C1229.46 76.435 1229.16 76.6413 1229.16 76.9775C1229.16 77.3138 1229.4 77.4825 1229.85 77.5588L1231.01 77.765C1232.92 78.0838 1233.73 79.1125 1233.73 80.5725C1233.73 82.6125 1231.95 83.3975 1229.81 83.3975C1227.85 83.3975 1226.54 82.6875 1226.06 81.1513L1228.47 80.2ZM1236.11 70.7813C1237.01 70.7813 1237.78 71.3988 1237.78 72.3725C1237.78 73.3463 1237.01 73.9638 1236.11 73.9638C1235.21 73.9638 1234.44 73.3463 1234.44 72.3725C1234.44 71.3988 1235.21 70.7813 1236.11 70.7813ZM1237.62 74.525V83.1725H1234.62V74.525H1237.62ZM1241.93 76.1925C1242.38 74.9 1243.39 74.32 1244.68 74.32C1246.01 74.32 1247.21 75.1075 1247.21 77.0913V83.175H1244.21V78.25C1244.21 77.37 1243.96 76.8275 1243.18 76.8275C1242.53 76.8275 1241.96 77.2213 1241.96 78.55V83.1725H1238.94V74.525H1241.65L1241.93 76.1925ZM1253.7 80.05L1256.21 80.8375C1255.71 82.69 1254.19 83.4 1252.47 83.4C1249.9 83.4 1248.03 81.7725 1248.03 78.945C1248.03 76.025 1249.68 74.32 1252.41 74.32C1254.97 74.32 1256.28 75.9675 1256.28 78.3638L1256.24 79.4513H1250.95C1251.01 80.5188 1251.53 81.0975 1252.43 81.0975C1253.05 81.0975 1253.5 80.8175 1253.7 80.0513L1253.7 80.05ZM1253.4 77.915C1253.4 77.165 1253.15 76.51 1252.3 76.51C1251.57 76.51 1251.1 77.11 1251.03 77.915H1253.4Z" fill="#838383"/>
<path d="M1259.04 80.2C1259.1 80.5144 1259.27 80.7968 1259.52 80.9959C1259.77 81.195 1260.08 81.2976 1260.4 81.285C1260.95 81.285 1261.32 81.0975 1261.32 80.7225C1261.32 80.3475 1261 80.18 1260.39 80.0475L1259.22 79.8037C1257.65 79.4662 1256.83 78.6612 1256.83 77.2387C1256.83 75.1425 1258.62 74.3187 1260.55 74.3187C1262.63 74.3187 1263.89 75.1812 1264.18 76.79L1261.43 77.2025C1261.34 76.7025 1261.04 76.435 1260.46 76.435C1260.03 76.435 1259.73 76.6412 1259.73 76.9775C1259.73 77.3137 1259.97 77.4825 1260.42 77.5587L1261.58 77.765C1263.49 78.0837 1264.29 79.1125 1264.29 80.5725C1264.29 82.6125 1262.52 83.3975 1260.38 83.3975C1258.42 83.3975 1257.11 82.6875 1256.63 81.1512L1259.04 80.2Z" fill="#838383"/>
<path d="M1267.05 80.2C1267.11 80.5144 1267.28 80.7968 1267.53 80.9959C1267.78 81.195 1268.1 81.2976 1268.42 81.285C1268.96 81.285 1269.34 81.0975 1269.34 80.7225C1269.34 80.3475 1269.02 80.18 1268.4 80.0475L1267.24 79.8037C1265.67 79.4662 1264.84 78.6612 1264.84 77.2387C1264.84 75.1425 1266.64 74.3187 1268.57 74.3187C1270.64 74.3187 1271.9 75.1937 1272.2 76.79L1269.44 77.2025C1269.35 76.7025 1269.05 76.435 1268.47 76.435C1268.04 76.435 1267.74 76.6412 1267.74 76.9775C1267.74 77.3137 1267.98 77.4825 1268.43 77.5587L1269.59 77.765C1271.5 78.0837 1272.31 79.1125 1272.31 80.5725C1272.31 82.6125 1270.53 83.3975 1268.4 83.3975C1266.43 83.3975 1265.12 82.6875 1264.65 81.1512L1267.05 80.2ZM1213.63 96.5225C1213.28 96.2225 1213.15 95.81 1213.02 95.2875L1212.68 93.9212C1212.49 93.1337 1212.17 92.9837 1211.46 92.9837H1210.51V96.5212H1207.46V85.5H1212.17C1214.64 85.5 1216.35 86.4537 1216.35 88.9625C1216.35 90.7037 1215.22 91.565 1214.01 91.77C1215.02 91.9762 1215.53 92.4237 1215.79 93.38L1216.31 95.27C1216.44 95.77 1216.59 96.145 1216.99 96.525L1213.63 96.5225ZM1210.51 90.515H1211.69C1212.75 90.515 1213.22 90.0825 1213.22 89.2975C1213.22 88.5125 1212.75 88.08 1211.69 88.08H1210.51V90.515ZM1222.47 93.3975L1224.98 94.185C1224.48 96.0387 1222.95 96.7475 1221.23 96.7475C1218.67 96.7475 1216.79 95.1187 1216.79 92.2937C1216.79 89.3737 1218.44 87.6687 1221.17 87.6687C1223.73 87.6687 1225.04 89.3162 1225.04 91.7112L1225.01 92.7987H1219.73C1219.79 93.8637 1220.31 94.4437 1221.21 94.4437C1221.85 94.4437 1222.28 94.165 1222.48 93.3975H1222.47ZM1222.17 91.25C1222.17 90.5025 1221.92 89.8475 1221.06 89.8475C1220.33 89.8475 1219.87 90.4475 1219.79 91.25H1222.17ZM1224.81 87.875H1228L1228.99 91.3562L1229.56 93.4725H1229.59C1229.59 93.4725 1229.78 92.5975 1230.17 91.3562L1231.3 87.875H1234.23L1231.09 96.5212H1227.83L1224.81 87.875ZM1236.37 84.1337C1237.27 84.1337 1238.04 84.7512 1238.04 85.725C1238.04 86.6987 1237.27 87.315 1236.37 87.315C1235.47 87.315 1234.71 86.6987 1234.71 85.725C1234.71 84.7512 1235.48 84.1337 1236.37 84.1337ZM1237.88 87.875V96.5212H1234.88V87.875H1237.88ZM1244.48 93.3975L1246.99 94.185C1246.49 96.0387 1244.97 96.7475 1243.25 96.7475C1240.69 96.7475 1238.81 95.1187 1238.81 92.2937C1238.81 89.3737 1240.46 87.6687 1243.19 87.6687C1245.75 87.6687 1247.06 89.3162 1247.06 91.7112L1247.03 92.7987H1241.75C1241.81 93.8637 1242.33 94.4437 1243.23 94.4437C1243.85 94.4437 1244.3 94.165 1244.5 93.3975H1244.48ZM1244.2 91.25C1244.2 90.5025 1243.95 89.8475 1243.09 89.8475C1242.36 89.8475 1241.89 90.4475 1241.82 91.25H1244.2ZM1255.15 87.875L1255.77 90.875L1256.27 93.59H1256.3L1256.85 90.9125L1257.54 87.8625H1260.48L1258.14 96.5087H1254.76L1254.24 93.9812L1253.77 91.2112H1253.73L1253.26 93.9812L1252.74 96.5087H1249.37L1247 87.875H1250.05L1250.75 90.925L1251.29 93.6025H1251.33L1251.83 90.8875L1252.45 87.8875L1255.15 87.875ZM1225.8 66.975C1225.8 67.3875 1225.93 67.6 1226.23 67.6C1226.42 67.6 1226.61 67.525 1226.77 67.4312V69.5662C1226.36 69.8662 1225.97 69.9787 1225.28 69.9787C1224.12 69.9787 1223.48 69.4537 1223.14 68.6112C1222.64 69.5112 1221.89 70.0162 1220.64 70.0162C1219.05 70.0162 1218.06 69.0787 1218.06 67.6012C1218.06 65.7475 1219.39 64.8137 1221.99 64.8137H1222.87V64.2337C1222.87 63.6712 1222.68 63.2787 1222.14 63.2787C1221.61 63.2787 1221.37 63.5975 1221.33 64.3087L1218.45 63.8587C1218.62 62.08 1220.01 60.9587 1222.23 60.9587C1224.7 60.9587 1225.79 62.0462 1225.79 63.9362L1225.8 66.975ZM1222.88 66.3575H1222.5C1221.41 66.3575 1221.04 66.695 1221.04 67.2575C1221.04 67.67 1221.32 67.9875 1221.84 67.9875C1222.35 67.9875 1222.89 67.7375 1222.89 66.9212L1222.88 66.3575ZM1233.16 64.58C1232.8 64.4487 1232.6 64.355 1232.11 64.355C1231.4 64.355 1230.54 64.635 1230.54 66.1712V69.8212H1227.52V61.1712H1230.1L1230.4 63.3062C1230.65 61.8637 1231.86 61.1712 1233.34 61.1712L1233.16 64.58Z" fill="#838383"/>
<path d="M1233.63 61.1726H1236.81L1237.8 64.6551L1238.36 66.7701H1238.4C1238.4 66.7701 1238.59 65.8951 1238.98 64.6551L1240.1 61.1726H1243.04L1239.9 69.8226H1236.65L1233.63 61.1726ZM1250.32 66.9751C1250.32 67.3876 1250.44 67.6001 1250.75 67.6001C1250.94 67.5901 1251.12 67.532 1251.29 67.4313V69.5663C1250.88 69.8663 1250.48 69.9788 1249.79 69.9788C1248.63 69.9788 1248 69.4538 1247.66 68.6113C1247.16 69.5113 1246.4 70.0163 1245.16 70.0163C1243.57 70.0163 1242.57 69.0788 1242.57 67.6013C1242.57 65.7476 1243.9 64.8138 1246.5 64.8138H1247.38V64.2338C1247.38 63.6713 1247.2 63.2788 1246.65 63.2788C1246.13 63.2788 1245.89 63.5976 1245.85 64.3088L1242.97 63.8588C1243.13 62.0801 1244.52 60.9588 1246.75 60.9588C1249.22 60.9588 1250.3 62.0463 1250.3 63.9363L1250.32 66.9751ZM1247.4 66.3576H1247C1245.92 66.3576 1245.54 66.6951 1245.54 67.2576C1245.54 67.6701 1245.82 67.9876 1246.35 67.9876C1246.85 67.9876 1247.4 67.7376 1247.4 66.9213L1247.4 66.3576ZM1257.67 64.5801C1257.31 64.4488 1257.11 64.3551 1256.62 64.3551C1255.91 64.3551 1255.05 64.6351 1255.05 66.1713V69.8213H1252.05V61.1713H1254.63L1254.93 63.3063C1255.18 61.8638 1256.4 61.1713 1257.87 61.1713L1257.67 64.5801ZM1264.24 58.2526H1267.27V69.8213H1264.54L1264.26 68.3238C1263.94 69.4838 1262.91 70.0463 1261.6 70.0463C1259.58 70.0463 1258.14 68.4738 1258.14 65.6651C1258.14 62.7651 1259.51 60.9651 1261.96 60.9651C1263.06 60.9651 1263.94 61.4701 1264.24 62.2938V58.2526ZM1264.26 64.8776C1264.26 63.7738 1263.71 63.1751 1262.84 63.1751C1261.96 63.1751 1261.21 63.8301 1261.21 65.5526C1261.21 66.9751 1261.81 67.7238 1262.8 67.7238C1263.57 67.7238 1264.26 67.1438 1264.26 65.9651L1264.26 64.8776ZM1207.46 69.8226V58.7976H1210.53V62.8976H1214.31V58.7976H1217.38V69.8226H1214.31V65.5538H1210.53V69.8226H1207.46Z" fill="#838383"/>
<g clip-path="url(#clip4_54_366)">
<path d="M1409 63H1379V93H1409V63Z" fill="#838383"/>
<path d="M1393 80L1387.8 70.3H1390.2L1393.2 76.4C1393.2 76.5 1393.3 76.6 1393.4 76.7C1393.5 76.8 1393.5 76.9 1393.6 77.1L1393.7 77.2V77.3C1393.8 77.5 1393.8 77.6 1393.9 77.8C1394 77.9 1394 78.1 1394.1 78.2C1394.2 77.9 1394.4 77.7 1394.5 77.3C1394.6 77 1394.8 76.7 1395 76.4L1398 70.3H1400.2L1395 80.1V86.3H1393V80Z" fill="white"/>
<path d="M1422.7 68.8C1424.2 68.8 1425.5 69.2 1426.5 70L1425.5 71.2C1424.6 70.6 1423.7 70.2 1422.6 70.2C1420.9 70.2 1419.6 71.1 1418.9 72.8C1418.5 73.8 1418.3 75.1 1418.3 76.8C1418.3 78.1 1418.5 79.2 1418.8 80C1419.6 81.9 1420.9 82.8 1422.9 82.8C1424 82.8 1425 82.5 1425.9 81.8L1426.9 83.1C1425.6 83.9 1424.2 84.3 1422.7 84.3C1420.9 84.3 1419.4 83.6 1418.2 82.1C1417 80.7 1416.5 78.8 1416.5 76.5C1416.5 74.2 1417.1 72.4 1418.3 70.9C1419.4 69.6 1420.9 68.8 1422.7 68.8Z" fill="#838383"/>
<path d="M1428.4 78.7C1428.4 76.9 1428.8 75.5 1429.7 74.5C1430.6 73.5 1431.7 72.9 1433.1 72.9C1434.7 72.9 1436 73.5 1436.9 74.8C1437.6 75.8 1437.9 77.2 1437.9 78.9C1437.9 80.9 1437.3 82.5 1436.2 83.5C1435.4 84.2 1434.4 84.6 1433.2 84.6C1431.7 84.6 1430.6 84.1 1429.7 83C1428.8 82 1428.4 80.5 1428.4 78.7ZM1435.4 75.8C1434.9 74.9 1434.2 74.4 1433.1 74.4C1432 74.4 1431.3 74.8 1430.8 75.6C1430.4 76.2 1430.3 77.2 1430.3 78.5C1430.3 80.2 1430.5 81.4 1431 82.1C1431.5 82.8 1432.2 83.2 1433.2 83.2C1434.4 83.2 1435.2 82.6 1435.6 81.5C1435.8 80.9 1435.9 80.1 1435.9 79.1C1436 77.6 1435.8 76.5 1435.4 75.8Z" fill="#838383"/>
</g>
<path d="M92.14 73L88.27 59.986H90.106L92.482 67.942C92.662 68.626 92.842 69.31 93.022 70.3C93.238 69.256 93.436 68.626 93.634 67.942L96.1 59.986H98.008L100.456 67.942C100.672 68.644 100.852 69.328 101.05 70.3C101.266 69.202 101.446 68.536 101.626 67.96L104.02 59.986H105.82L101.896 73H100.204L97.054 62.704L93.868 73H92.14ZM109.967 73.216C107.375 73.216 105.593 71.344 105.593 68.608C105.593 65.854 107.339 63.946 109.895 63.946C112.397 63.946 114.035 65.674 114.035 68.284V68.914L107.231 68.932C107.357 70.786 108.329 71.812 110.003 71.812C111.317 71.812 112.181 71.272 112.469 70.264H114.053C113.621 72.154 112.145 73.216 109.967 73.216ZM109.895 65.368C108.419 65.368 107.483 66.25 107.267 67.798H112.343C112.343 66.34 111.389 65.368 109.895 65.368ZM117.333 61.084L116.901 64.81H115.929L115.461 61.084C115.353 60.274 115.911 59.932 116.433 59.932C116.883 59.932 117.441 60.274 117.333 61.084ZM124.534 64.126V65.674H123.778C122.176 65.674 121.186 66.646 121.186 68.338V73H119.494V64.216H121.078L121.186 65.548C121.546 64.63 122.428 64.018 123.634 64.018C123.94 64.018 124.192 64.054 124.534 64.126ZM129.602 73.216C127.01 73.216 125.228 71.344 125.228 68.608C125.228 65.854 126.974 63.946 129.53 63.946C132.032 63.946 133.67 65.674 133.67 68.284V68.914L126.866 68.932C126.992 70.786 127.964 71.812 129.638 71.812C130.952 71.812 131.816 71.272 132.104 70.264H133.688C133.256 72.154 131.78 73.216 129.602 73.216ZM129.53 65.368C128.054 65.368 127.118 66.25 126.902 67.798H131.978C131.978 66.34 131.024 65.368 129.53 65.368ZM142.174 72.982H140.482V59.752H142.174V65.548C142.732 64.594 143.794 63.946 145.162 63.946C147.412 63.946 148.492 65.368 148.492 67.618V73H146.8V67.996C146.8 66.214 145.954 65.494 144.694 65.494C143.056 65.494 142.174 66.682 142.174 68.194V72.982ZM153.409 73.216C151.519 73.216 150.403 72.154 150.403 70.552C150.403 68.932 151.609 67.924 153.679 67.762L156.451 67.546V67.294C156.451 65.818 155.569 65.296 154.381 65.296C152.959 65.296 152.149 65.926 152.149 66.988H150.673C150.673 65.152 152.185 63.946 154.453 63.946C156.631 63.946 158.107 65.098 158.107 67.474V73H156.667L156.487 71.578C156.037 72.586 154.831 73.216 153.409 73.216ZM153.895 71.902C155.497 71.902 156.469 70.858 156.469 69.202V68.734L154.219 68.914C152.725 69.058 152.113 69.634 152.113 70.498C152.113 71.434 152.797 71.902 153.895 71.902ZM162.565 73L159.019 64.198H160.819L162.745 69.112C163.051 69.94 163.303 70.678 163.447 71.218C163.591 70.642 163.879 69.886 164.185 69.112L166.147 64.198H167.911L164.239 73H162.565ZM172.651 73.216C170.059 73.216 168.277 71.344 168.277 68.608C168.277 65.854 170.023 63.946 172.579 63.946C175.081 63.946 176.719 65.674 176.719 68.284V68.914L169.915 68.932C170.041 70.786 171.013 71.812 172.687 71.812C174.001 71.812 174.865 71.272 175.153 70.264H176.737C176.305 72.154 174.829 73.216 172.651 73.216ZM172.579 65.368C171.103 65.368 170.167 66.25 169.951 67.798H175.027C175.027 66.34 174.073 65.368 172.579 65.368ZM185.061 73H183.531V59.752H185.223V65.71C185.799 64.558 186.987 63.946 188.427 63.946C190.947 63.946 192.459 65.926 192.459 68.644C192.459 71.308 190.875 73.216 188.319 73.216C186.933 73.216 185.763 72.604 185.187 71.398L185.061 73ZM185.241 68.572C185.241 70.408 186.285 71.686 188.013 71.686C189.741 71.686 190.767 70.39 190.767 68.572C190.767 66.772 189.741 65.476 188.013 65.476C186.285 65.476 185.241 66.772 185.241 68.572ZM198.122 73.216C195.53 73.216 193.748 71.344 193.748 68.608C193.748 65.854 195.494 63.946 198.05 63.946C200.552 63.946 202.19 65.674 202.19 68.284V68.914L195.386 68.932C195.512 70.786 196.484 71.812 198.158 71.812C199.472 71.812 200.336 71.272 200.624 70.264H202.208C201.776 72.154 200.3 73.216 198.122 73.216ZM198.05 65.368C196.574 65.368 195.638 66.25 195.422 67.798H200.498C200.498 66.34 199.544 65.368 198.05 65.368ZM207.877 73.216C205.285 73.216 203.503 71.344 203.503 68.608C203.503 65.854 205.249 63.946 207.805 63.946C210.307 63.946 211.945 65.674 211.945 68.284V68.914L205.141 68.932C205.267 70.786 206.239 71.812 207.913 71.812C209.227 71.812 210.091 71.272 210.379 70.264H211.963C211.531 72.154 210.055 73.216 207.877 73.216ZM207.805 65.368C206.329 65.368 205.393 66.25 205.177 67.798H210.253C210.253 66.34 209.299 65.368 207.805 65.368ZM215.527 73H213.835V64.198H215.365L215.545 65.548C216.103 64.54 217.219 63.946 218.461 63.946C220.783 63.946 221.845 65.368 221.845 67.618V73H220.153V67.996C220.153 66.214 219.325 65.494 218.029 65.494C216.445 65.494 215.527 66.628 215.527 68.338V73ZM234.151 64.126V65.674H233.395C231.793 65.674 230.803 66.646 230.803 68.338V73H229.111V64.216H230.695L230.803 65.548C231.163 64.63 232.045 64.018 233.251 64.018C233.557 64.018 233.809 64.054 234.151 64.126ZM239.219 73.216C236.627 73.216 234.845 71.344 234.845 68.608C234.845 65.854 236.591 63.946 239.147 63.946C241.649 63.946 243.287 65.674 243.287 68.284V68.914L236.483 68.932C236.609 70.786 237.581 71.812 239.255 71.812C240.569 71.812 241.433 71.272 241.721 70.264H243.305C242.873 72.154 241.397 73.216 239.219 73.216ZM239.147 65.368C237.671 65.368 236.735 66.25 236.519 67.798H241.595C241.595 66.34 240.641 65.368 239.147 65.368ZM244.601 68.608C244.601 65.854 246.347 63.946 248.921 63.946C251.135 63.946 252.683 65.206 252.989 67.168H251.297C251.009 66.052 250.109 65.458 248.975 65.458C247.373 65.458 246.275 66.682 246.275 68.59C246.275 70.48 247.301 71.704 248.903 71.704C250.109 71.704 251.009 71.074 251.315 70.03H253.007C252.665 71.938 251.027 73.216 248.903 73.216C246.311 73.216 244.601 71.38 244.601 68.608ZM254.216 68.59C254.216 65.872 256.16 63.964 258.806 63.964C261.434 63.964 263.378 65.872 263.378 68.59C263.378 71.308 261.434 73.216 258.806 73.216C256.16 73.216 254.216 71.308 254.216 68.59ZM255.926 68.59C255.926 70.426 257.096 71.704 258.806 71.704C260.498 71.704 261.686 70.426 261.686 68.59C261.686 66.754 260.498 65.476 258.806 65.476C257.096 65.476 255.926 66.754 255.926 68.59ZM264.693 68.374C264.693 65.89 266.295 63.946 268.851 63.946C270.273 63.946 271.371 64.594 271.929 65.692L272.055 64.198H273.567V72.64C273.567 75.412 271.857 77.176 269.157 77.176C266.763 77.176 265.125 75.826 264.801 73.594H266.493C266.709 74.89 267.681 75.646 269.157 75.646C270.813 75.646 271.893 74.566 271.893 72.892V71.128C271.317 72.154 270.165 72.766 268.779 72.766C266.277 72.766 264.693 70.84 264.693 68.374ZM266.385 68.338C266.385 69.994 267.411 71.29 269.067 71.29C270.777 71.29 271.821 70.066 271.821 68.338C271.821 66.646 270.813 65.422 269.085 65.422C267.393 65.422 266.385 66.718 266.385 68.338ZM277.701 73H276.009V64.198H277.539L277.719 65.548C278.277 64.54 279.393 63.946 280.635 63.946C282.957 63.946 284.019 65.368 284.019 67.618V73H282.327V67.996C282.327 66.214 281.499 65.494 280.203 65.494C278.619 65.494 277.701 66.628 277.701 68.338V73ZM287.191 62.11C286.579 62.11 286.075 61.606 286.075 60.994C286.075 60.364 286.579 59.878 287.191 59.878C287.803 59.878 288.307 60.364 288.307 60.994C288.307 61.606 287.803 62.11 287.191 62.11ZM286.363 73V64.198H288.055V73H286.363ZM296.829 73H289.971V71.632L294.723 65.62H289.971V64.198H296.829V65.584L292.041 71.578H296.829V73ZM302.342 73.216C299.75 73.216 297.968 71.344 297.968 68.608C297.968 65.854 299.714 63.946 302.27 63.946C304.772 63.946 306.41 65.674 306.41 68.284V68.914L299.606 68.932C299.732 70.786 300.704 71.812 302.378 71.812C303.692 71.812 304.556 71.272 304.844 70.264H306.428C305.996 72.154 304.52 73.216 302.342 73.216ZM302.27 65.368C300.794 65.368 299.858 66.25 299.642 67.798H304.718C304.718 66.34 303.764 65.368 302.27 65.368ZM311.828 73.216C309.272 73.216 307.724 71.308 307.724 68.626C307.724 65.926 309.29 63.946 311.9 63.946C313.25 63.946 314.384 64.54 314.978 65.62V59.752H316.652V73H315.14L314.996 71.398C314.42 72.604 313.232 73.216 311.828 73.216ZM312.17 71.686C313.898 71.686 314.96 70.408 314.96 68.572C314.96 66.772 313.898 65.476 312.17 65.476C310.442 65.476 309.434 66.772 309.434 68.572C309.434 70.39 310.442 71.686 312.17 71.686ZM325.545 73H324.015V59.752H325.707V65.71C326.283 64.558 327.471 63.946 328.911 63.946C331.431 63.946 332.943 65.926 332.943 68.644C332.943 71.308 331.359 73.216 328.803 73.216C327.417 73.216 326.247 72.604 325.671 71.398L325.545 73ZM325.725 68.572C325.725 70.408 326.769 71.686 328.497 71.686C330.225 71.686 331.251 70.39 331.251 68.572C331.251 66.772 330.225 65.476 328.497 65.476C326.769 65.476 325.725 66.772 325.725 68.572ZM333.663 76.942V75.556H334.797C335.607 75.556 336.255 75.43 336.669 74.314L336.975 73.468L333.429 64.198H335.211L337.767 71.29L340.377 64.198H342.123L337.965 74.98C337.371 76.492 336.489 77.122 335.139 77.122C334.581 77.122 334.113 77.05 333.663 76.942ZM350.448 59.986V71.362H356.172V73H348.684V59.986H350.448ZM361.422 73.216C358.83 73.216 357.048 71.344 357.048 68.608C357.048 65.854 358.794 63.946 361.35 63.946C363.852 63.946 365.49 65.674 365.49 68.284V68.914L358.686 68.932C358.812 70.786 359.784 71.812 361.458 71.812C362.772 71.812 363.636 71.272 363.924 70.264H365.508C365.076 72.154 363.6 73.216 361.422 73.216ZM361.35 65.368C359.874 65.368 358.938 66.25 358.722 67.798H363.798C363.798 66.34 362.844 65.368 361.35 65.368ZM369.866 73.216C367.976 73.216 366.86 72.154 366.86 70.552C366.86 68.932 368.066 67.924 370.136 67.762L372.908 67.546V67.294C372.908 65.818 372.026 65.296 370.838 65.296C369.416 65.296 368.606 65.926 368.606 66.988H367.13C367.13 65.152 368.642 63.946 370.91 63.946C373.088 63.946 374.564 65.098 374.564 67.474V73H373.124L372.944 71.578C372.494 72.586 371.288 73.216 369.866 73.216ZM370.352 71.902C371.954 71.902 372.926 70.858 372.926 69.202V68.734L370.676 68.914C369.182 69.058 368.57 69.634 368.57 70.498C368.57 71.434 369.254 71.902 370.352 71.902ZM380.436 73.216C377.88 73.216 376.332 71.308 376.332 68.626C376.332 65.926 377.898 63.946 380.508 63.946C381.858 63.946 382.992 64.54 383.586 65.62V59.752H385.26V73H383.748L383.604 71.398C383.028 72.604 381.84 73.216 380.436 73.216ZM380.778 71.686C382.506 71.686 383.568 70.408 383.568 68.572C383.568 66.772 382.506 65.476 380.778 65.476C379.05 65.476 378.042 66.772 378.042 68.572C378.042 70.39 379.05 71.686 380.778 71.686ZM388.529 62.11C387.917 62.11 387.413 61.606 387.413 60.994C387.413 60.364 387.917 59.878 388.529 59.878C389.141 59.878 389.645 60.364 389.645 60.994C389.645 61.606 389.141 62.11 388.529 62.11ZM387.701 73V64.198H389.393V73H387.701ZM393.541 73H391.849V64.198H393.379L393.559 65.548C394.117 64.54 395.233 63.946 396.475 63.946C398.797 63.946 399.859 65.368 399.859 67.618V73H398.167V67.996C398.167 66.214 397.339 65.494 396.043 65.494C394.459 65.494 393.541 66.628 393.541 68.338V73ZM401.645 68.374C401.645 65.89 403.247 63.946 405.803 63.946C407.225 63.946 408.323 64.594 408.881 65.692L409.007 64.198H410.519V72.64C410.519 75.412 408.809 77.176 406.109 77.176C403.715 77.176 402.077 75.826 401.753 73.594H403.445C403.661 74.89 404.633 75.646 406.109 75.646C407.765 75.646 408.845 74.566 408.845 72.892V71.128C408.269 72.154 407.117 72.766 405.731 72.766C403.229 72.766 401.645 70.84 401.645 68.374ZM403.337 68.338C403.337 69.994 404.363 71.29 406.019 71.29C407.729 71.29 408.773 70.066 408.773 68.338C408.773 66.646 407.765 65.422 406.037 65.422C404.345 65.422 403.337 66.718 403.337 68.338ZM96.388 91.474H91.276V97H89.512V83.986H97.36V85.606H91.276V89.872H96.388V91.474ZM100.036 86.11C99.4244 86.11 98.9204 85.606 98.9204 84.994C98.9204 84.364 99.4244 83.878 100.036 83.878C100.648 83.878 101.152 84.364 101.152 84.994C101.152 85.606 100.648 86.11 100.036 86.11ZM99.2084 97V88.198H100.9V97H99.2084ZM105.049 97H103.357V88.198H104.887L105.067 89.548C105.625 88.54 106.741 87.946 107.983 87.946C110.305 87.946 111.367 89.368 111.367 91.618V97H109.675V91.996C109.675 90.214 108.847 89.494 107.551 89.494C105.967 89.494 105.049 90.628 105.049 92.338V97ZM116.284 97.216C114.394 97.216 113.278 96.154 113.278 94.552C113.278 92.932 114.484 91.924 116.554 91.762L119.326 91.546V91.294C119.326 89.818 118.444 89.296 117.256 89.296C115.834 89.296 115.024 89.926 115.024 90.988H113.548C113.548 89.152 115.06 87.946 117.328 87.946C119.506 87.946 120.982 89.098 120.982 91.474V97H119.542L119.362 95.578C118.912 96.586 117.706 97.216 116.284 97.216ZM116.77 95.902C118.372 95.902 119.344 94.858 119.344 93.202V92.734L117.094 92.914C115.6 93.058 114.988 93.634 114.988 94.498C114.988 95.434 115.672 95.902 116.77 95.902ZM125.018 97H123.326V88.198H124.856L125.036 89.548C125.594 88.54 126.71 87.946 127.952 87.946C130.274 87.946 131.336 89.368 131.336 91.618V97H129.644V91.996C129.644 90.214 128.816 89.494 127.52 89.494C125.936 89.494 125.018 90.628 125.018 92.338V97ZM133.103 92.608C133.103 89.854 134.849 87.946 137.423 87.946C139.637 87.946 141.185 89.206 141.491 91.168H139.799C139.511 90.052 138.611 89.458 137.477 89.458C135.875 89.458 134.777 90.682 134.777 92.59C134.777 94.48 135.803 95.704 137.405 95.704C138.611 95.704 139.511 95.074 139.817 94.03H141.509C141.167 95.938 139.529 97.216 137.405 97.216C134.813 97.216 133.103 95.38 133.103 92.608ZM147.092 97.216C144.5 97.216 142.718 95.344 142.718 92.608C142.718 89.854 144.464 87.946 147.02 87.946C149.522 87.946 151.16 89.674 151.16 92.284V92.914L144.356 92.932C144.482 94.786 145.454 95.812 147.128 95.812C148.442 95.812 149.306 95.272 149.594 94.264H151.178C150.746 96.154 149.27 97.216 147.092 97.216ZM147.02 89.368C145.544 89.368 144.608 90.25 144.392 91.798H149.468C149.468 90.34 148.514 89.368 147.02 89.368ZM163.318 92.356H160.024V97H158.26V83.986H163.318C165.874 83.986 167.512 85.66 167.512 88.162C167.512 90.592 165.856 92.356 163.318 92.356ZM163.012 85.57H160.024V90.772H162.94C164.686 90.772 165.658 89.746 165.658 88.144C165.658 86.506 164.668 85.57 163.012 85.57ZM175.306 88.198H176.98V97H175.468L175.288 95.668C174.784 96.586 173.614 97.216 172.318 97.216C170.266 97.216 169.114 95.83 169.114 93.67V88.198H170.806V93.112C170.806 95.002 171.616 95.722 172.912 95.722C174.46 95.722 175.306 94.732 175.306 92.842V88.198ZM180.965 97H179.435V83.752H181.127V89.71C181.703 88.558 182.891 87.946 184.331 87.946C186.851 87.946 188.363 89.926 188.363 92.644C188.363 95.308 186.779 97.216 184.223 97.216C182.837 97.216 181.667 96.604 181.091 95.398L180.965 97ZM181.145 92.572C181.145 94.408 182.189 95.686 183.917 95.686C185.645 95.686 186.671 94.39 186.671 92.572C186.671 90.772 185.645 89.476 183.917 89.476C182.189 89.476 181.145 90.772 181.145 92.572ZM191.956 97H190.264V83.752H191.956V97ZM195.275 86.11C194.663 86.11 194.159 85.606 194.159 84.994C194.159 84.364 194.663 83.878 195.275 83.878C195.887 83.878 196.391 84.364 196.391 84.994C196.391 85.606 195.887 86.11 195.275 86.11ZM194.447 97V88.198H196.139V97H194.447ZM198.019 92.608C198.019 89.854 199.765 87.946 202.339 87.946C204.553 87.946 206.101 89.206 206.407 91.168H204.715C204.427 90.052 203.527 89.458 202.393 89.458C200.791 89.458 199.693 90.682 199.693 92.59C199.693 94.48 200.719 95.704 202.321 95.704C203.527 95.704 204.427 95.074 204.733 94.03H206.425C206.083 95.938 204.445 97.216 202.321 97.216C199.729 97.216 198.019 95.38 198.019 92.608ZM210.784 97.216C208.894 97.216 207.778 96.154 207.778 94.552C207.778 92.932 208.984 91.924 211.054 91.762L213.826 91.546V91.294C213.826 89.818 212.944 89.296 211.756 89.296C210.334 89.296 209.524 89.926 209.524 90.988H208.048C208.048 89.152 209.56 87.946 211.828 87.946C214.006 87.946 215.482 89.098 215.482 91.474V97H214.042L213.862 95.578C213.412 96.586 212.206 97.216 210.784 97.216ZM211.27 95.902C212.872 95.902 213.844 94.858 213.844 93.202V92.734L211.594 92.914C210.1 93.058 209.488 93.634 209.488 94.498C209.488 95.434 210.172 95.902 211.27 95.902ZM220.169 97H218.477V89.62H216.749V88.198H218.477V85.444H220.169V88.198H221.897V89.62H220.169V97ZM224.243 86.11C223.631 86.11 223.127 85.606 223.127 84.994C223.127 84.364 223.631 83.878 224.243 83.878C224.855 83.878 225.359 84.364 225.359 84.994C225.359 85.606 224.855 86.11 224.243 86.11ZM223.415 97V88.198H225.107V97H223.415ZM226.988 92.59C226.988 89.872 228.932 87.964 231.578 87.964C234.206 87.964 236.15 89.872 236.15 92.59C236.15 95.308 234.206 97.216 231.578 97.216C228.932 97.216 226.988 95.308 226.988 92.59ZM228.698 92.59C228.698 94.426 229.868 95.704 231.578 95.704C233.27 95.704 234.458 94.426 234.458 92.59C234.458 90.754 233.27 89.476 231.578 89.476C229.868 89.476 228.698 90.754 228.698 92.59ZM239.715 97H238.023V88.198H239.553L239.733 89.548C240.291 88.54 241.407 87.946 242.649 87.946C244.971 87.946 246.033 89.368 246.033 91.618V97H244.341V91.996C244.341 90.214 243.513 89.494 242.217 89.494C240.633 89.494 239.715 90.628 239.715 92.338V97ZM247.551 94.444H249.171C249.171 95.344 249.855 95.884 250.971 95.884C252.159 95.884 252.843 95.398 252.843 94.588C252.843 93.994 252.555 93.634 251.637 93.4L250.089 93.04C248.523 92.662 247.785 91.888 247.785 90.592C247.785 88.972 249.153 87.946 251.097 87.946C253.023 87.946 254.283 89.026 254.319 90.7H252.699C252.663 89.818 252.069 89.26 251.043 89.26C249.981 89.26 249.387 89.728 249.387 90.538C249.387 91.132 249.819 91.528 250.683 91.744L252.231 92.122C253.725 92.482 254.463 93.166 254.463 94.48C254.463 96.154 253.023 97.216 250.935 97.216C248.865 97.216 247.551 96.118 247.551 94.444ZM263.835 97.216C261.945 97.216 260.829 96.154 260.829 94.552C260.829 92.932 262.035 91.924 264.105 91.762L266.877 91.546V91.294C266.877 89.818 265.995 89.296 264.807 89.296C263.385 89.296 262.575 89.926 262.575 90.988H261.099C261.099 89.152 262.611 87.946 264.879 87.946C267.057 87.946 268.533 89.098 268.533 91.474V97H267.093L266.913 95.578C266.463 96.586 265.257 97.216 263.835 97.216ZM264.321 95.902C265.923 95.902 266.895 94.858 266.895 93.202V92.734L264.645 92.914C263.151 93.058 262.539 93.634 262.539 94.498C262.539 95.434 263.223 95.902 264.321 95.902ZM272.568 97H270.876V88.198H272.406L272.586 89.548C273.144 88.54 274.26 87.946 275.502 87.946C277.824 87.946 278.886 89.368 278.886 91.618V97H277.194V91.996C277.194 90.214 276.366 89.494 275.07 89.494C273.486 89.494 272.568 90.628 272.568 92.338V97ZM284.758 97.216C282.202 97.216 280.654 95.308 280.654 92.626C280.654 89.926 282.22 87.946 284.83 87.946C286.18 87.946 287.314 88.54 287.908 89.62V83.752H289.582V97H288.07L287.926 95.398C287.35 96.604 286.162 97.216 284.758 97.216ZM285.1 95.686C286.828 95.686 287.89 94.408 287.89 92.572C287.89 90.772 286.828 89.476 285.1 89.476C283.372 89.476 282.364 90.772 282.364 92.572C282.364 94.39 283.372 95.686 285.1 95.686ZM308.969 90.484C308.969 94.444 306.377 97.216 302.687 97.216C299.015 97.216 296.459 94.444 296.459 90.484C296.459 86.542 299.033 83.752 302.705 83.752C306.395 83.752 308.969 86.524 308.969 90.484ZM307.115 90.484C307.115 87.46 305.351 85.462 302.705 85.462C300.059 85.462 298.313 87.46 298.313 90.484C298.313 93.508 300.059 95.524 302.705 95.524C305.351 95.524 307.115 93.49 307.115 90.484ZM315.977 88.126V89.674H315.221C313.619 89.674 312.629 90.646 312.629 92.338V97H310.937V88.216H312.521L312.629 89.548C312.989 88.63 313.871 88.018 315.077 88.018C315.383 88.018 315.635 88.054 315.977 88.126ZM316.812 92.374C316.812 89.89 318.414 87.946 320.97 87.946C322.392 87.946 323.49 88.594 324.048 89.692L324.174 88.198H325.686V96.64C325.686 99.412 323.976 101.176 321.276 101.176C318.882 101.176 317.244 99.826 316.92 97.594H318.612C318.828 98.89 319.8 99.646 321.276 99.646C322.932 99.646 324.012 98.566 324.012 96.892V95.128C323.436 96.154 322.284 96.766 320.898 96.766C318.396 96.766 316.812 94.84 316.812 92.374ZM318.504 92.338C318.504 93.994 319.53 95.29 321.186 95.29C322.896 95.29 323.94 94.066 323.94 92.338C323.94 90.646 322.932 89.422 321.204 89.422C319.512 89.422 318.504 90.718 318.504 92.338ZM330.702 97.216C328.812 97.216 327.696 96.154 327.696 94.552C327.696 92.932 328.902 91.924 330.972 91.762L333.744 91.546V91.294C333.744 89.818 332.862 89.296 331.674 89.296C330.252 89.296 329.442 89.926 329.442 90.988H327.966C327.966 89.152 329.478 87.946 331.746 87.946C333.924 87.946 335.4 89.098 335.4 91.474V97H333.96L333.78 95.578C333.33 96.586 332.124 97.216 330.702 97.216ZM331.188 95.902C332.79 95.902 333.762 94.858 333.762 93.202V92.734L331.512 92.914C330.018 93.058 329.406 93.634 329.406 94.498C329.406 95.434 330.09 95.902 331.188 95.902ZM339.436 97H337.744V88.198H339.274L339.454 89.548C340.012 88.54 341.128 87.946 342.37 87.946C344.692 87.946 345.754 89.368 345.754 91.618V97H344.062V91.996C344.062 90.214 343.234 89.494 341.938 89.494C340.354 89.494 339.436 90.628 339.436 92.338V97ZM348.925 86.11C348.313 86.11 347.809 85.606 347.809 84.994C347.809 84.364 348.313 83.878 348.925 83.878C349.537 83.878 350.041 84.364 350.041 84.994C350.041 85.606 349.537 86.11 348.925 86.11ZM348.097 97V88.198H349.789V97H348.097ZM358.563 97H351.705V95.632L356.457 89.62H351.705V88.198H358.563V89.584L353.775 95.578H358.563V97ZM363.046 97.216C361.156 97.216 360.04 96.154 360.04 94.552C360.04 92.932 361.246 91.924 363.316 91.762L366.088 91.546V91.294C366.088 89.818 365.206 89.296 364.018 89.296C362.596 89.296 361.786 89.926 361.786 90.988H360.31C360.31 89.152 361.822 87.946 364.09 87.946C366.268 87.946 367.744 89.098 367.744 91.474V97H366.304L366.124 95.578C365.674 96.586 364.468 97.216 363.046 97.216ZM363.532 95.902C365.134 95.902 366.106 94.858 366.106 93.202V92.734L363.856 92.914C362.362 93.058 361.75 93.634 361.75 94.498C361.75 95.434 362.434 95.902 363.532 95.902ZM372.431 97H370.739V89.62H369.011V88.198H370.739V85.444H372.431V88.198H374.159V89.62H372.431V97ZM376.505 86.11C375.893 86.11 375.389 85.606 375.389 84.994C375.389 84.364 375.893 83.878 376.505 83.878C377.117 83.878 377.621 84.364 377.621 84.994C377.621 85.606 377.117 86.11 376.505 86.11ZM375.677 97V88.198H377.369V97H375.677ZM379.25 92.59C379.25 89.872 381.194 87.964 383.84 87.964C386.468 87.964 388.412 89.872 388.412 92.59C388.412 95.308 386.468 97.216 383.84 97.216C381.194 97.216 379.25 95.308 379.25 92.59ZM380.96 92.59C380.96 94.426 382.13 95.704 383.84 95.704C385.532 95.704 386.72 94.426 386.72 92.59C386.72 90.754 385.532 89.476 383.84 89.476C382.13 89.476 380.96 90.754 380.96 92.59ZM391.977 97H390.285V88.198H391.815L391.995 89.548C392.553 88.54 393.669 87.946 394.911 87.946C397.233 87.946 398.295 89.368 398.295 91.618V97H396.603V91.996C396.603 90.214 395.775 89.494 394.479 89.494C392.895 89.494 391.977 90.628 391.977 92.338V97ZM399.813 94.444H401.433C401.433 95.344 402.117 95.884 403.233 95.884C404.421 95.884 405.105 95.398 405.105 94.588C405.105 93.994 404.817 93.634 403.899 93.4L402.351 93.04C400.785 92.662 400.047 91.888 400.047 90.592C400.047 88.972 401.415 87.946 403.359 87.946C405.285 87.946 406.545 89.026 406.581 90.7H404.961C404.925 89.818 404.331 89.26 403.305 89.26C402.243 89.26 401.649 89.728 401.649 90.538C401.649 91.132 402.081 91.528 402.945 91.744L404.493 92.122C405.987 92.482 406.725 93.166 406.725 94.48C406.725 96.154 405.285 97.216 403.197 97.216C401.127 97.216 399.813 96.118 399.813 94.444ZM409.755 97.216C409.053 97.216 408.459 96.64 408.459 95.956C408.459 95.254 409.053 94.678 409.755 94.678C410.439 94.678 411.033 95.254 411.033 95.956C411.033 96.64 410.439 97.216 409.755 97.216Z" fill="#3A3A3A"/>
<rect x="1352" y="1" width="88" height="154" fill="url(#paint0_linear_54_366)"/>
</g>
<defs>
<linearGradient id="paint0_linear_54_366" x1="1436.82" y1="78" x2="1385.29" y2="78.153" gradientUnits="userSpaceOnUse">
<stop stop-color="#E5DBFB"/>
<stop offset="1" stop-color="#E5DBFB" stop-opacity="0"/>
</linearGradient>
<clipPath id="clip0_54_366">
<rect width="1440" height="155" fill="white"/>
</clipPath>
<clipPath id="clip1_54_366">
<rect width="150" height="17.5392" fill="white" transform="translate(499 69)"/>
</clipPath>
<clipPath id="clip2_54_366">
<rect width="150" height="27.6959" fill="white" transform="translate(739 64)"/>
</clipPath>
<clipPath id="clip3_54_366">
<rect width="70" height="35" fill="white" transform="translate(979 60)"/>
</clipPath>
<clipPath id="clip4_54_366">
<rect width="145" height="30" fill="white" transform="translate(1379 63)"/>
</clipPath>
</defs>
</svg>
