<svg width="280" height="40" viewBox="0 0 280 40" fill="none" xmlns="http://www.w3.org/2000/svg">
<circle cx="20" cy="20" r="20" fill="white"/>
<path d="M23 20C23 20.5933 22.8241 21.1734 22.4944 21.6667C22.1648 22.1601 21.6962 22.5446 21.1481 22.7716C20.5999 22.9987 19.9967 23.0581 19.4147 22.9424C18.8328 22.8266 18.2982 22.5409 17.8787 22.1213C17.4591 21.7018 17.1734 21.1672 17.0576 20.5853C16.9419 20.0033 17.0013 19.4001 17.2284 18.8519C17.4554 18.3038 17.8399 17.8352 18.3333 17.5056C18.8266 17.1759 19.4067 17 20 17C20.7949 17.0025 21.5565 17.3193 22.1186 17.8814C22.6807 18.4435 22.9975 19.2051 23 20ZM29.375 15.875V24.125C29.375 25.5174 28.8219 26.8527 27.8373 27.8373C26.8527 28.8219 25.5174 29.375 24.125 29.375H15.875C14.4826 29.375 13.1473 28.8219 12.1627 27.8373C11.1781 26.8527 10.625 25.5174 10.625 24.125V15.875C10.625 14.4826 11.1781 13.1473 12.1627 12.1627C13.1473 11.1781 14.4826 10.625 15.875 10.625H24.125C25.5174 10.625 26.8527 11.1781 27.8373 12.1627C28.8219 13.1473 29.375 14.4826 29.375 15.875ZM24.5 20C24.5 19.11 24.2361 18.24 23.7416 17.4999C23.2471 16.7599 22.5443 16.1831 21.7221 15.8425C20.8998 15.5019 19.995 15.4128 19.1221 15.5865C18.2492 15.7601 17.4474 16.1887 16.818 16.818C16.1887 17.4474 15.7601 18.2492 15.5865 19.1221C15.4128 19.995 15.5019 20.8998 15.8425 21.7221C16.1831 22.5443 16.7599 23.2471 17.4999 23.7416C18.24 24.2361 19.11 24.5 20 24.5C21.1935 24.5 22.3381 24.0259 23.182 23.182C24.0259 22.3381 24.5 21.1935 24.5 20ZM26 15.125C26 14.9025 25.934 14.685 25.8104 14.5C25.6868 14.315 25.5111 14.1708 25.3055 14.0856C25.1 14.0005 24.8738 13.9782 24.6555 14.0216C24.4373 14.065 24.2368 14.1722 24.0795 14.3295C23.9222 14.4868 23.815 14.6873 23.7716 14.9055C23.7282 15.1238 23.7505 15.35 23.8356 15.5555C23.9208 15.7611 24.065 15.9368 24.25 16.0604C24.435 16.184 24.6525 16.25 24.875 16.25C25.1734 16.25 25.4595 16.1315 25.6705 15.9205C25.8815 15.7095 26 15.4234 26 15.125Z" fill="url(#paint0_linear_54_598)"/>
<circle cx="100" cy="20" r="20" fill="white"/>
<path d="M110.46 14C109.69 14.35 108.86 14.58 108 14.69C108.88 14.16 109.56 13.32 109.88 12.31C109.05 12.81 108.13 13.16 107.16 13.36C106.37 12.5 105.26 12 104 12C101.65 12 99.73 13.92 99.73 16.29C99.73 16.63 99.77 16.96 99.84 17.27C96.28 17.09 93.11 15.38 91 12.79C90.63 13.42 90.42 14.16 90.42 14.94C90.42 16.43 91.17 17.75 92.33 18.5C91.62 18.5 90.96 18.3 90.38 18V18.03C90.38 20.11 91.86 21.85 93.82 22.24C93.1908 22.4122 92.5301 22.4362 91.89 22.31C92.1616 23.1625 92.6936 23.9084 93.4111 24.4429C94.1285 24.9775 94.9955 25.2737 95.89 25.29C94.3737 26.4904 92.494 27.1393 90.56 27.13C90.22 27.13 89.88 27.11 89.54 27.07C91.44 28.29 93.7 29 96.12 29C104 29 108.33 22.46 108.33 16.79C108.33 16.6 108.33 16.42 108.32 16.23C109.16 15.63 109.88 14.87 110.46 14Z" fill="url(#paint1_linear_54_598)"/>
<circle cx="180" cy="20" r="20" fill="white"/>
<path d="M184.6 13.82C183.917 13.0396 183.54 12.0374 183.54 11H180.45V23.4C180.426 24.071 180.143 24.7066 179.66 25.1729C179.177 25.6393 178.532 25.8999 177.86 25.9C176.44 25.9 175.26 24.74 175.26 23.3C175.26 21.58 176.92 20.29 178.63 20.82V17.66C175.18 17.2 172.16 19.88 172.16 23.3C172.16 26.63 174.92 29 177.85 29C180.99 29 183.54 26.45 183.54 23.3V17.01C184.793 17.9099 186.298 18.3926 187.84 18.39V15.3C187.84 15.3 185.96 15.39 184.6 13.82Z" fill="url(#paint2_linear_54_598)"/>
<circle cx="260" cy="20" r="20" fill="white"/>
<path d="M270.058 14.9454C269.938 14.5014 269.704 14.0966 269.379 13.7715C269.054 13.4464 268.649 13.2124 268.205 13.0929C266.57 12.6504 260 12.6504 260 12.6504C260 12.6504 253.43 12.6504 251.795 13.0929C251.351 13.2124 250.946 13.4464 250.621 13.7715C250.296 14.0966 250.062 14.5014 249.943 14.9454C249.637 16.6128 249.489 18.3053 249.5 20.0004C249.489 21.6955 249.637 23.3879 249.943 25.0554C250.062 25.4994 250.296 25.9042 250.621 26.2293C250.946 26.5544 251.351 26.7884 251.795 26.9079C253.43 27.3504 260 27.3504 260 27.3504C260 27.3504 266.57 27.3504 268.205 26.9079C268.649 26.7884 269.054 26.5544 269.379 26.2293C269.704 25.9042 269.938 25.4994 270.058 25.0554C270.363 23.3879 270.511 21.6955 270.5 20.0004C270.511 18.3053 270.363 16.6128 270.058 14.9454ZM257.9 23.1504V16.8504L263.353 20.0004L257.9 23.1504Z" fill="url(#paint3_linear_54_598)"/>
<defs>
<linearGradient id="paint0_linear_54_598" x1="20" y1="10.625" x2="20" y2="29.375" gradientUnits="userSpaceOnUse">
<stop stop-color="#6364FF"/>
<stop offset="1" stop-color="#563ACC"/>
</linearGradient>
<linearGradient id="paint1_linear_54_598" x1="100" y1="12" x2="100" y2="29" gradientUnits="userSpaceOnUse">
<stop stop-color="#6364FF"/>
<stop offset="1" stop-color="#563ACC"/>
</linearGradient>
<linearGradient id="paint2_linear_54_598" x1="180" y1="11" x2="180" y2="29" gradientUnits="userSpaceOnUse">
<stop stop-color="#6364FF"/>
<stop offset="1" stop-color="#563ACC"/>
</linearGradient>
<linearGradient id="paint3_linear_54_598" x1="260" y1="12.6504" x2="260" y2="27.3504" gradientUnits="userSpaceOnUse">
<stop stop-color="#6364FF"/>
<stop offset="1" stop-color="#563ACC"/>
</linearGradient>
</defs>
</svg>
